<?xml version="1.0" encoding="UTF-8" standalone="no"?>
<!-- Created with Inkscape (http://www.inkscape.org/) -->

<svg
   xmlns:dc="http://purl.org/dc/elements/1.1/"
   xmlns:cc="http://creativecommons.org/ns#"
   xmlns:rdf="http://www.w3.org/1999/02/22-rdf-syntax-ns#"
   xmlns:svg="http://www.w3.org/2000/svg"
   xmlns="http://www.w3.org/2000/svg"
   xmlns:sodipodi="http://sodipodi.sourceforge.net/DTD/sodipodi-0.dtd"
   xmlns:inkscape="http://www.inkscape.org/namespaces/inkscape"
   width="210mm"
   height="297mm"
   viewBox="0 0 744.09448819 1052.3622047"
   id="svg2"
   version="1.1"
   inkscape:version="0.91 r13725"
   sodipodi:docname="fades_keep_calm.svg">
  <defs
     id="defs4" />
  <sodipodi:namedview
     id="base"
     pagecolor="#ffffff"
     bordercolor="#666666"
     borderopacity="1.0"
     inkscape:pageopacity="0.0"
     inkscape:pageshadow="2"
     inkscape:zoom="0.49497475"
     inkscape:cx="44.866806"
     inkscape:cy="589.45753"
     inkscape:document-units="px"
     inkscape:current-layer="layer1"
     showgrid="false"
     inkscape:window-width="1333"
     inkscape:window-height="714"
     inkscape:window-x="33"
     inkscape:window-y="24"
     inkscape:window-maximized="1" />
  <metadata
     id="metadata7">
    <rdf:RDF>
      <cc:Work
         rdf:about="">
        <dc:format>image/svg+xml</dc:format>
        <dc:type
           rdf:resource="http://purl.org/dc/dcmitype/StillImage" />
        <dc:title />
      </cc:Work>
    </rdf:RDF>
  </metadata>
  <g
     inkscape:label="Capa 1"
     inkscape:groupmode="layer"
     id="layer1">
    <rect
       style="color:#000000;display:inline;overflow:visible;visibility:visible;opacity:1;fill:#d40000;fill-opacity:1;stroke:none;stroke-width:2;stroke-linecap:butt;stroke-linejoin:miter;stroke-miterlimit:4;stroke-dasharray:2, 4;stroke-dashoffset:0;stroke-opacity:1;marker:none;enable-background:accumulate"
       id="rect3350"
       width="591.9494"
       height="882.87329"
       x="76.771599"
       y="13.925394"
       rx="8.9193802"
       ry="9.7437897"
       inkscape:export-xdpi="90.012924"
       inkscape:export-ydpi="90.012924" />
    <text
       xml:space="preserve"
       style="font-style:normal;font-weight:normal;font-size:133.20237732px;line-height:125%;font-family:Sans;letter-spacing:0px;word-spacing:0px;fill:#fdf8c7;fill-opacity:1;stroke:none;stroke-width:4.6;stroke-linecap:butt;stroke-linejoin:miter;stroke-opacity:1;stroke-miterlimit:4;stroke-dasharray:none;opacity:0.97;"
       x="199.62561"
       y="402.04016"
       id="text3336"
       sodipodi:linespacing="125%"
       inkscape:export-xdpi="90.012924"
       inkscape:export-ydpi="90.012924"><tspan
         sodipodi:role="line"
         id="tspan3338"
         x="199.62561"
         y="402.04016"
         style="-inkscape-font-specification:'DejaVu Sans';font-family:'DejaVu Sans';font-weight:normal;font-style:normal;font-stretch:normal;font-variant:normal;stroke:#fdf8c7;stroke-opacity:1;stroke-width:4.6;stroke-miterlimit:4;stroke-dasharray:none;fill:#fdf8c7;fill-opacity:1">KEEP</tspan></text>
    <text
       xml:space="preserve"
       style="font-style:normal;font-weight:normal;font-size:98.66073608px;line-height:125%;font-family:Sans;letter-spacing:0px;word-spacing:0px;fill:#ffffff;fill-opacity:1;stroke:none;stroke-width:1px;stroke-linecap:butt;stroke-linejoin:miter;stroke-opacity:1;"
       x="235.85881"
       y="513.03131"
       id="text3340"
       sodipodi:linespacing="125%"
       inkscape:export-xdpi="90.012924"
       inkscape:export-ydpi="90.012924"><tspan
         sodipodi:role="line"
         id="tspan3342"
         x="235.85881"
         y="513.03131"
         style="color:#000000;font-style:normal;font-variant:normal;font-weight:normal;font-stretch:normal;font-size:98.66073608px;line-height:125%;font-family:Sans;text-indent:0;text-align:start;text-decoration:none;text-decoration-line:none;text-decoration-style:solid;text-decoration-color:#000000;letter-spacing:0px;word-spacing:0px;text-transform:none;direction:ltr;block-progression:tb;writing-mode:lr-tb;baseline-shift:baseline;text-anchor:start;white-space:normal;clip-rule:nonzero;display:inline;overflow:visible;visibility:visible;opacity:1;isolation:auto;mix-blend-mode:normal;color-interpolation:sRGB;color-interpolation-filters:linearRGB;solid-color:#000000;solid-opacity:1;fill:#fdf8c7;fill-opacity:1;fill-rule:nonzero;stroke:#fdf8c7;stroke-width:2;stroke-linecap:butt;stroke-linejoin:miter;stroke-miterlimit:4;stroke-dasharray:none;stroke-dashoffset:0;stroke-opacity:1;filter-blend-mode:normal;filter-gaussianBlur-deviation:0;color-rendering:auto;image-rendering:auto;shape-rendering:auto;text-rendering:auto;enable-background:accumulate">CALM</tspan></text>
    <text
       xml:space="preserve"
       style="font-style:normal;font-weight:normal;font-size:52.33324051px;line-height:125%;font-family:Sans;letter-spacing:0px;word-spacing:0px;fill:#ffffff;fill-opacity:1;stroke:none;stroke-width:2.6;stroke-linecap:butt;stroke-linejoin:miter;stroke-opacity:1;stroke-miterlimit:4;stroke-dasharray:none;"
       x="315.77878"
       y="589.51819"
       id="text3344"
       sodipodi:linespacing="125%"
       inkscape:export-xdpi="90.012924"
       inkscape:export-ydpi="90.012924"><tspan
         sodipodi:role="line"
         id="tspan3346"
         x="315.77878"
         y="589.51819"
         style="stroke:#fdf8c7;stroke-opacity:1;stroke-width:2.6;stroke-miterlimit:4;stroke-dasharray:none;fill:#fdf8c7;fill-opacity:1">AND</tspan></text>
    <text
       xml:space="preserve"
       style="font-style:normal;font-weight:normal;font-size:98.66073608px;line-height:125%;font-family:Sans;letter-spacing:0px;word-spacing:0px;fill:#fdf8c7;fill-opacity:1;stroke:none;stroke-width:2;stroke-linecap:butt;stroke-linejoin:miter;stroke-opacity:1;stroke-miterlimit:4;stroke-dasharray:none;"
       x="272.30258"
       y="703.72223"
       id="text3348"
       sodipodi:linespacing="125%"
       inkscape:export-xdpi="90.012924"
       inkscape:export-ydpi="90.012924"><tspan
         sodipodi:role="line"
         id="tspan3350"
         x="272.30258"
         y="703.72223"
         style="stroke:#fdf8c7;stroke-opacity:1;stroke-width:2;stroke-miterlimit:4;stroke-dasharray:none;fill:#fdf8c7;fill-opacity:1;">USE</tspan></text>
    <text
       xml:space="preserve"
       style="font-style:normal;font-weight:normal;font-size:133.20237732px;line-height:125%;font-family:Sans;letter-spacing:0px;word-spacing:0px;fill:#ffffff;fill-opacity:1;stroke:none;stroke-width:1px;stroke-linecap:butt;stroke-linejoin:miter;stroke-opacity:1;"
       x="155.75598"
       y="839.9256"
       id="text3352"
       sodipodi:linespacing="125%"
       inkscape:export-xdpi="90.012924"
       inkscape:export-ydpi="90.012924"><tspan
         sodipodi:role="line"
         id="tspan3354"
         x="155.75598"
         y="839.9256"
         style="color:#000000;font-style:normal;font-variant:normal;font-weight:normal;font-stretch:normal;font-size:133.20237732px;line-height:125%;font-family:'DejaVu Sans';text-indent:0;text-align:start;text-decoration:none;text-decoration-line:none;text-decoration-style:solid;text-decoration-color:#000000;letter-spacing:0px;word-spacing:0px;text-transform:none;direction:ltr;block-progression:tb;writing-mode:lr-tb;baseline-shift:baseline;text-anchor:start;white-space:normal;clip-rule:nonzero;display:inline;overflow:visible;visibility:visible;opacity:1;isolation:auto;mix-blend-mode:normal;color-interpolation:sRGB;color-interpolation-filters:linearRGB;solid-color:#000000;solid-opacity:1;fill:#fdf8c7;fill-opacity:1;fill-rule:nonzero;stroke:#fdf8c7;stroke-width:4.5999999;stroke-linecap:butt;stroke-linejoin:miter;stroke-miterlimit:4;stroke-dasharray:none;stroke-dashoffset:0;stroke-opacity:1;filter-blend-mode:normal;filter-gaussianBlur-deviation:0;color-rendering:auto;image-rendering:auto;shape-rendering:auto;text-rendering:auto;enable-background:accumulate;-inkscape-font-specification:'DejaVu Sans'">FADES</tspan></text>
    <g
       id="g3454"
       transform="matrix(1.0601407,0,0,1.0601407,668.35497,60.846877)"
       inkscape:export-xdpi="90.012924"
       inkscape:export-ydpi="90.012924">
      <g
         inkscape:label="Capa 1"
         id="layer1-6"
         transform="matrix(0.84234108,0,0,0.84234108,-628.55265,-218.46714)">
        <g
           id="g4500"
           transform="matrix(1.1340549,0,0,1.1340549,-373.08599,-152.90101)">
          <path
             sodipodi:nodetypes="sssssssscscssssscsscssscsscsscscccsssssssscssccccscccscsscscssscssssccssscssssssscssscccsscscsssccssccssssssscscsscsscccscssssssscssccsccsccscsscsscsccssssssscssssscccssccsscssscssssscssssscsssssssssssscsscscscssssssscscsccsssscscsccc"
             inkscape:connector-curvature="0"
             id="path4484"
             d="m 662.05422,523.12019 c 43.4303,-12.69542 62.5899,-18.71078 82.5,-25.90175 11.825,-4.27086 25.4583,-8.96579 30.2963,-10.43319 13.0942,-3.97164 13.1353,-4.0389 12.3241,-20.20236 -0.3682,-7.33542 -0.9209,-13.99274 -1.2284,-14.79403 -0.3075,-0.80129 -1.8504,-1.74051 -3.4286,-2.08714 -4.0965,-0.89975 -7.9634,-4.25491 -7.9634,-6.90956 0,-2.7129 2.4964,-5.17616 6.1764,-6.09444 4.9387,-1.23236 6.1861,-3.69548 5.4299,-10.7218 -0.371,-3.44639 -0.9464,-10.20021 -1.2787,-15.00848 -0.3448,-4.98979 -1.1323,-9.18061 -1.8345,-9.76343 -2.3658,-1.96342 -31.0607,-9.84565 -57.9931,-15.93018 -24.1343,-5.45239 -26.5858,-5.98715 -44,-9.59793 -39.6679,-8.22501 -38.1606,-7.99066 -42.1396,-6.55182 -11.4148,4.12763 -24.6557,15.53397 -30.2784,26.08314 -5.4678,10.25873 -6.1566,15.80366 -6.7706,54.50253 l -0.5553,35 2.641,7.82783 c 3.6385,10.78425 8.3567,17.75893 15.6413,23.12154 8.3415,6.14064 20.2115,12.56318 23.0847,12.49055 1.3073,-0.0331 10.0269,-2.29632 19.3769,-5.02948 z m -20.8837,-2.66044 c -0.8598,-7.14742 -2.5172,-35.79882 -3.0533,-52.78415 l -0.4745,-15.03414 13.2057,-3.36582 c 13.6192,-3.47117 34.3957,-10.43471 83.7058,-28.05508 37.4361,-13.37735 46.036,-16.31938 46.4118,-15.87757 0.1717,0.20172 0.6072,5.42926 0.9679,11.61676 0.6364,10.91708 0.5946,11.25 -1.4116,11.25 -3.3321,0 -7.977,2.89332 -9.0111,5.613 -2.6173,6.88409 0.1612,13.64748 7.2023,17.53156 l 4.3407,2.39446 0,13.48049 0,13.48049 -15,5.21659 c -41.0527,14.27699 -67.5193,22.89637 -93,30.28734 -15.4,4.46694 -28.45,8.28291 -29,8.47994 -3.4017,1.2186 -4.324,0.419 -4.8837,-4.23387 z m 22.7287,-11.07874 c 3.4802,-3.84556 0.8562,-10.17126 -4.2192,-10.17126 -3.1804,0 -7.1344,4.25126 -6.4364,6.92035 1.2136,4.64079 7.627,6.59746 10.6556,3.25091 z m -7.7141,-2.02664 c -1.8284,-2.0203 -0.0826,-3.19957 0.9409,-5.14462 2.0276,-3.85326 5.43203,3.91042 4.71623,5.77574 -0.7376,1.92208 -3.64663,1.59048 -5.65713,-0.63112 z m 4.895,-5.99476 c 0.9642,-0.98989 2.464,1.3036 2.3929,3.65916 l -0.081,2.69098 -0.53599,-0.38176 c -1.46944,-1.04661 -1.96331,-5.7758 -1.77571,-5.96838 z m 40.5327,-5.82181 c 3.424,-3.09331 3.9414,-4.12459 3.9414,-7.85552 0,-3.56811 -0.5206,-4.73276 -3.0767,-6.88364 -8.7258,-7.34223 -22.0365,2.63947 -16.3521,12.2624 1.9335,3.2732 4.4186,4.85817 8.7374,5.5728 2.1868,0.36184 3.6813,-0.32364 6.75,-3.09604 z m -11.4674,-0.57805 c -2.4189,-2.15948 -3.0827,-4.48703 -2.7467,-9.63084 0.1412,-2.1626 0.4895,-2.32665 3.7989,-1.7896 7.0205,1.13928 11.523,9.03959 6.9695,12.22902 -2.8871,2.02223 -5.1007,1.7991 -8.0217,-0.80858 z m 10.3923,-6.78983 c -1.4905,-3.59833 -4.5441,-4.57695 -7.706,-4.57695 -3.0677,0 -2.8993,-3.18907 0.2419,-3.97745 3.0638,-0.76896 8.2051,1.21092 9.5188,3.66564 1.2039,2.2495 1.2634,7.92859 0.083,7.92859 -0.4833,0 -1.4453,-1.36792 -2.1378,-3.03983 z m -25.0243,-8.57929 c 11.0359,-9.28608 6.4762,-22.38088 -7.7932,-22.38088 -4.4871,0 -5.2603,0.36201 -8.5496,4.00288 -4.1319,4.57348 -4.7148,8.88015 -1.9816,14.64004 3.1557,6.64998 12.5792,8.57226 18.3244,3.73796 z m -15.2092,-2.46866 c -2.1321,-2.2823 -2.75,-3.9265 -2.75,-7.31721 0,-6.20131 2.5161,-9.09598 7.1506,-8.22653 3.7809,0.70929 8.1963,4.71614 9.332,8.46846 1.1516,3.80474 -0.3161,9.15539 -2.7878,10.16349 -3.434,1.40055 -7.939,0.1294 -10.9448,-3.08821 z m 13.3911,-11.65895 c -0.6644,-1.23571 -3.1054,-3.21924 -5.4245,-4.40786 -4.5414,-2.3276 -3.7052,-3.44105 1.8076,-2.40684 5.3192,0.99787 9.4758,5.04059 9.4758,9.21607 0,1.91226 -0.5175,4.44385 -1.1501,5.62575 -1.0853,2.0279 -1.2162,1.92565 -2.3254,-1.81574 -0.6464,-2.18056 -1.7189,-4.97568 -2.3834,-6.21138 z m 89.9358,5.82365 c 6.0998,-6.09973 2.0022,-15.07692 -6.8816,-15.07692 -7.1843,0 -10.9576,6.08123 -7.8355,12.62824 2.8381,5.95167 10.0193,7.1465 14.7171,2.44868 z m -10.5321,0.3019 c -0.8903,-0.34165 -2.2774,-1.89485 -3.0824,-3.45156 -3.3857,-6.54718 3.8966,-11.10014 8.465,-5.2924 2.0024,2.54562 2.7755,7.32889 1.4059,8.69847 -0.8387,0.8387 -4.6548,0.86427 -6.7885,0.0455 z m 4.715,-11.31621 c -3.3726,-2.77999 -3.5038,-3.06261 -1.4219,-3.06261 5.3917,0 8.7482,4.12822 7.5685,9.30865 l -1.31951,2.79614 -0.25939,-2.79218 c -0.16853,-1.81416 -2.5159,-4.55876 -4.5677,-6.25 z m -34.5736,-3.01284 c 6.4873,-3.95559 7.2262,-10.16347 1.779,-14.94618 -2.8441,-2.49711 -4.4224,-3.10359 -8.0769,-3.10359 -12.4282,0 -14.3953,16.9486 -2.2491,19.37784 4.4994,0.89988 5.0277,0.81779 8.547,-1.32807 z m -12.4855,-2.07745 c -3.0724,-2.86233 -3.7544,-6.47837 -1.7879,-9.47961 1.8823,-2.87275 4.32323,-3.48604 8.36813,-1.39439 3.6772,1.90158 6.27498,5.35759 6.27498,8.69354 0,3.4959 -1.67851,4.20814 -6.53401,4.20814 -2.7814,0 -4.8607,-0.66699 -6.3212,-2.02768 z m 10.7993,-8.48521 c -0.825,-0.99224 -3.3,-2.62287 -5.5,-3.62363 -2.2,-1.00075 -3.55,-1.86288 -3,-1.91583 0.55,-0.053 2.034,-0.28828 3.2977,-0.52297 3.0689,-0.56991 8.03,2.10298 9.3726,5.04968 0.6211,1.36326 0.7619,3.5832 0.3299,5.2019 l -0.7536,2.82374 -1.1233,-2.60441 c -0.6178,-1.43243 -1.7983,-3.41624 -2.6233,-4.40848 z m 32.8114,-6.52607 c 4.2146,-3.92649 1.5374,-9.96104 -4.4191,-9.96104 -3.0375,0 -3.6825,0.45027 -4.9334,3.4441 -1.7169,4.10905 -1.0493,6.38092 2.2426,7.6325 3.5263,1.34072 4.6652,1.16202 7.1099,-1.11556 z m -7.2296,-0.56803 c -0.87,-0.33384 -1.5818,-1.68384 -1.5818,-3 0,-3.10068 3.2927,-3.24091 5.4016,-0.23004 2.2814,3.25721 0.399,4.84897 -3.8198,3.23004 z m 2.7772,-8.08531 c 1.0653,-1.06533 4.641,1.91903 4.641,3.87351 0,1.97913 -0.1594,1.93879 -2.5554,-0.64647 -1.4054,-1.51652 -2.344,-2.96869 -2.0856,-3.22704 z m -119.359,87.86327 c -5.2226,-2.91766 -12.7123,-8.59729 -15.2867,-11.59235 -3.0544,-3.55328 -7.4979,-12.95862 -9.1689,-19.40707 -1.2779,-4.93192 -1.5809,-11.36134 -1.5113,-32.07154 0.048,-14.24665 0.4133,-27.12226 0.8118,-28.61245 0.7157,-2.67624 0.77,-2.64106 4.4289,2.86955 3.9109,5.89026 10.036,11.24262 19.6726,17.19068 l 5.8344,3.60116 0.6675,15.17553 c 0.3672,8.34653 1.0872,22.60052 1.6,31.67552 0.5128,9.075 0.9367,18.39838 0.942,20.71862 0.011,4.78806 -0.2073,4.80042 -7.9903,0.45235 z m -1.1667,-73.63442 c -9.0508,-5.29813 -16.7562,-12.51253 -19.8852,-18.61815 -3.3366,-6.51091 -3.7847,-16.82022 -1.0321,-23.74796 2.9261,-7.3646 9.0972,-16.16172 14.7969,-21.09363 6.5739,-5.68838 18.1621,-11.38216 21.8959,-10.75839 2.9632,0.49503 14.8555,2.91583 56.8912,11.58079 13.2,2.72095 30.3,6.60913 38,8.64039 7.7,2.03126 15.575,4.00985 17.5,4.39687 6.6168,1.3303 22,6.37959 22,7.22115 0,0.46331 -0.5625,0.84374 -1.25,0.8454 -0.6875,0.002 -9.8,3.19848 -20.25,7.10404 -10.45,3.90557 -27.1,9.93654 -37,13.40216 -9.9,3.46562 -25.1461,8.80934 -33.8801,11.87493 -8.7341,3.06559 -22.0091,7.19917 -29.5,9.18574 -7.491,1.98658 -14.0699,3.76051 -14.6199,3.94208 -3.2161,1.06175 -6.8847,-0.005 -13.6667,-3.97542 z m 29.6667,-15.43759 c 3.452,-1.51932 6.6884,-5.73627 6.3324,-8.2511 -0.7142,-5.04469 -12.3484,-7.59497 -19.3945,-4.25136 -5.5852,2.65033 -5.7782,8.14191 -0.3843,10.93124 3.6604,1.89286 10.8158,2.72898 13.4464,1.57122 z m -11.9529,-2.25948 c -4.9531,-2.25674 -4.59243,-4.83948 2.40567,-4.83948 3.7656,0 12.70717,1.18566 12.70717,2.20963 0,2.87686 -10.32664,4.81064 -15.11284,2.62985 z m 3.7029,-5.33948 c -3.9875,0 -7.25,-0.32713 -7.25,-0.72695 0,-0.39982 1.1932,-1.50875 2.6515,-2.46428 3.7081,-2.42964 12.5367,-2.35343 15.283,0.13193 3.0716,2.77983 2.7143,4.77883 -0.6845,3.82835 -1.5125,-0.42298 -6.0125,-0.76905 -10,-0.76905 z m 41.2056,-14.03225 c 10.533,-4.00862 11.5542,-11.76311 2.0426,-15.50941 -5.0718,-1.9976 -15.4236,-1.54723 -20.1771,0.87783 -4.7722,2.43461 -6.0157,5.07267 -4.3204,9.16558 2.185,5.27493 14.8538,8.3588 22.4549,5.466 z m -14.6719,-1.51102 c -3.7742,-1.04822 -6.7837,-3.30149 -6.7837,-5.07918 0,-1.79642 6.8656,-3.87782 12.7179,-3.85559 3.6656,0.0139 7.4293,0.774 10.2821,2.07648 l 4.5,2.05451 -2.9644,2.38208 c -4.2843,3.44264 -10.8505,4.3384 -17.7519,2.4217 z m 10.68167,-9.63452 c -5.6864,-1.50395 -4.12903,-1.1181 -9.50493,0.28248 -6.6214,1.7251 -9.30484,-0.11631 -3.38254,-2.94044 4.8455,-2.31065 14.9429,-2.20553 19.4377,0.20236 3.744,2.0057 5.7472,6.03627 2.3358,4.69997 -1.0183,-0.39888 -5.45253,-1.33625 -8.88603,-2.24437 z m 50.51193,5.70047 c 2.4147,-2.41468 1.7305,-4.60531 -2.0488,-6.55967 -5.3455,-2.76424 -10.9285,-0.99999 -10.9285,3.45343 0,4.78574 9.1159,6.9677 12.9773,3.10624 z m -9.5362,-0.49088 c -1.7956,-1.35814 -1.5851,-2.79047 2.8089,-2.81989 4.4618,-0.0299 6.2952,2.49793 3.5,3.62581 -2.3115,0.9327 -4.3554,0.6716 -6.3089,-0.80592 z m 0.8115,-3.5318 c -2.1066,0 -2.3027,-0.23477 -1.2526,-1.5 1.7562,-2.11611 5.3665,-1.86177 8.1392,0.5734 l 2.3608,2.0734 -3.375,-0.5734 c -1.8563,-0.31537 -4.4989,-0.5734 -5.8724,-0.5734 z m -77.0865,-2.02506 c 4.8138,-2.54292 6.9538,-8.07995 4.2693,-11.04628 -4.3254,-4.7795 -15.9031,-4.93034 -21.4307,-0.27921 -4.941,4.15762 -3.6936,9.05752 2.9864,11.7303 5.2792,2.11234 9.6461,1.98763 14.175,-0.40481 z m -14.6661,-1.2655 c -4.8223,-2.43247 -2.28616,-5.79469 5.03804,-6.96588 4.6904,-0.75003 12.71976,1.92821 12.19856,3.64665 -0.1851,0.61038 -2.2781,2.10072 -4.6512,3.31186 -4.3836,2.23722 -8.1604,2.23944 -12.5854,0.007 z m -3.5,-6.12788 c 0,-4.90964 15.8649,-7.71664 20.0365,-3.54509 2.6102,2.61018 -0.12824,4.33351 -3.48484,3.05731 -3.6063,-1.37111 -9.53286,-1.24111 -13.05166,0.3701 -1.65,0.75553 -3.1125,1.41023 -3.25,1.4549 -0.1375,0.0447 -0.25,-0.55708 -0.25,-1.33722 z m 139.4228,43.89586 c 0.9316,-1.42175 2.6801,-2.95166 3.8855,-3.39981 2.4151,-0.89787 4.9417,-0.31813 4.484,1.02889 -0.3153,0.92782 -9.0404,5.62233 -9.6778,5.20706 -0.212,-0.13813 0.3768,-1.41439 1.3083,-2.83614 z"
             style="fill:#000000" />
          <path
             inkscape:connector-curvature="0"
             id="path4488"
             d="m 627.72678,516.51863 c -10.72102,-7.25653 -15.69637,-13.34368 -19.30996,-23.625 -2.44239,-6.94902 -2.77867,-11.46428 -2.77867,-37.30965 l 0,-29.40386 4.75872,6.2323 c 2.61729,3.42776 9.09155,9.19279 14.38725,12.81118 l 9.62855,6.5789 0.85966,14.12718 c 1.74092,28.60946 2.70375,56.49229 1.95074,56.49229 -0.42599,0 -4.69932,-2.6565 -9.49629,-5.90334 z"
             style="color:#000000;display:inline;overflow:visible;visibility:visible;opacity:1;fill:#fdf8c7;fill-opacity:1;stroke:none;stroke-width:2;stroke-linecap:butt;stroke-linejoin:miter;stroke-miterlimit:4;stroke-dasharray:2, 4;stroke-dashoffset:0;stroke-opacity:1;marker:none;enable-background:accumulate" />
          <path
             inkscape:connector-curvature="0"
             id="path4490"
             d="m 641.26475,514.4351 c -0.48929,-5.15673 -1.30173,-21.04552 -1.80542,-35.30842 l -0.91578,-25.93254 6.11887,-1.54982 c 12.6639,-3.20756 46.48468,-14.37194 90.15456,-29.76039 24.82873,-8.74918 45.21802,-15.80354 45.30956,-15.67635 0.0915,0.12718 0.59162,4.69649 1.11133,10.15401 l 0.9449,9.92276 -5.25496,2.57841 c -9.57595,4.69857 -9.29571,15.8029 0.55524,22.00072 l 4.45359,2.80201 0.0535,13.37079 0.0535,13.37078 -32.98922,11.25721 c -18.14402,6.19147 -38.92722,13.10966 -46.18485,15.37375 -27.92688,8.7121 -55.93141,16.77297 -58.27154,16.77297 -2.00292,0 -2.60404,-1.69087 -3.33324,-9.37589 z m 23.82493,-8.10517 c 0.51529,-5.28053 -2.52104,-8.16623 -7.3241,-6.96074 -2.15329,0.54044 -3.79976,2.1869 -4.3402,4.3402 -1.20549,4.80305 1.68021,7.83939 6.96074,7.32409 3.66153,-0.3573 4.34625,-1.04202 4.70356,-4.70355 z m 37.34307,-10.54146 c 4.39647,-4.13027 4.46569,-12.6144 0.12771,-15.65284 -7.38877,-5.1753 -17.74818,-0.58011 -17.74818,7.87268 0,9.39457 10.8177,14.17102 17.62047,7.78016 z m -26.2906,-15.03709 c 0.20726,0 1.61543,-2.03145 3.12927,-4.51432 3.7553,-6.15913 3.51021,-11.5328 -0.71887,-15.76188 -2.96628,-2.96628 -4.53901,-3.41958 -10.62427,-3.06216 -5.89042,0.34598 -7.63396,1.07985 -9.9455,4.18616 -3.57224,4.80044 -3.57846,11.27471 -0.0154,16.04702 3.28915,4.40546 7.89078,5.84028 13.64006,4.25306 2.28684,-0.63134 4.32747,-1.14788 4.53473,-1.14788 z m 86.96241,-8.43494 c 7.35154,-5.78272 3.4046,-16.56742 -6.06326,-16.56742 -9.22866,0 -12.93542,9.41518 -6.31373,16.03687 4.16516,4.16515 7.57076,4.31114 12.37699,0.53055 z m -38.11729,-15.99638 c 5.26031,-4.42626 5.52787,-9.16622 0.78514,-13.90895 -2.80689,-2.80688 -4.6117,-3.40519 -9.23703,-3.06216 -14.61363,1.08383 -13.53066,20.24089 1.15954,20.51152 1.6603,0.0306 4.94185,-1.5626 7.29235,-3.54041 z m 29.33151,-15.6159 c 2.42492,-1.96358 2.93035,-3.38424 2.21625,-6.22944 -1.32602,-5.28328 -7.41242,-6.62773 -10.84024,-2.39455 -3.34497,4.13085 -3.20944,6.37678 0.54341,9.00538 3.8913,2.72557 4.26545,2.70791 8.08058,-0.38139 z"
             style="color:#000000;display:inline;overflow:visible;visibility:visible;opacity:1;fill:#fdf8c7;fill-opacity:1;stroke:none;stroke-width:2;stroke-linecap:butt;stroke-linejoin:miter;stroke-miterlimit:4;stroke-dasharray:2, 4;stroke-dashoffset:0;stroke-opacity:1;marker:none;enable-background:accumulate" />
          <path
             inkscape:connector-curvature="0"
             id="path4492"
             d="m 630.73224,445.65936 c -3.38737,-1.70831 -9.36374,-6.23132 -13.28082,-10.05112 -8.26847,-8.06314 -11.3267,-16.22621 -9.82663,-26.22939 1.07665,-7.17961 9.2593,-20.60886 16.02727,-26.30373 5.55842,-4.6771 17.06321,-10.66757 20.48521,-10.66651 8.95217,0.003 121.74585,25.53899 130.57526,29.56194 2.77873,1.26608 -0.72144,2.87177 -27.03313,12.40132 -63.39317,22.9597 -99.20825,34.45586 -107.2094,34.41279 -1.96839,-0.0106 -6.35039,-1.41699 -9.73776,-3.1253 z m 32.44657,-17.57619 c 3.22043,-3.55853 2.29566,-8.6508 -1.97987,-10.90219 -4.02117,-2.11744 -14.28666,-1.48841 -17.36198,1.06388 -3.05692,2.53702 -2.5409,7.8574 1.00281,10.33952 4.47766,3.13627 15.31521,2.84008 18.33904,-0.50121 z m 34.02807,-21.76782 c 5.28339,-4.44568 5.41355,-7.8053 0.45383,-11.71342 -3.29347,-2.59516 -5.20574,-2.94035 -13.87799,-2.50522 -11.93928,0.59906 -16.67303,3.78127 -15.07807,10.13609 1.18113,4.706 7.54371,7.55233 17.04282,7.6242 5.75253,0.0435 8.03818,-0.66287 11.45941,-3.54165 z m 42.33159,-3.78335 c 1.24231,-2.04557 0.91407,-3.02253 -1.75007,-5.20883 -5.54368,-4.54935 -12.69456,-2.81784 -12.69456,3.07385 0,5.36282 11.45598,7.05606 14.44463,2.13498 z m -84.24286,-6.90291 c 7.42197,-6.81618 1.25674,-14.33935 -10.80157,-13.1807 -7.74572,0.74427 -12.46451,4.05926 -12.46451,8.75642 0,8.25734 15.81722,11.26515 23.26608,4.42428 z"
             style="color:#000000;display:inline;overflow:visible;visibility:visible;opacity:1;fill:#fdf8c7;fill-opacity:1;stroke:none;stroke-width:2;stroke-linecap:butt;stroke-linejoin:miter;stroke-miterlimit:4;stroke-dasharray:2, 4;stroke-dashoffset:0;stroke-opacity:1;marker:none;enable-background:accumulate" />
        </g>
      </g>
    </g>
  </g>
</svg>
