<?xml version="1.0" encoding="UTF-8" standalone="no"?>
<!-- Created with Inkscape (http://www.inkscape.org/) -->

<svg
   xmlns:dc="http://purl.org/dc/elements/1.1/"
   xmlns:cc="http://creativecommons.org/ns#"
   xmlns:rdf="http://www.w3.org/1999/02/22-rdf-syntax-ns#"
   xmlns:svg="http://www.w3.org/2000/svg"
   xmlns="http://www.w3.org/2000/svg"
   xmlns:sodipodi="http://sodipodi.sourceforge.net/DTD/sodipodi-0.dtd"
   xmlns:inkscape="http://www.inkscape.org/namespaces/inkscape"
   width="210mm"
   height="297mm"
   viewBox="0 0 744.09448819 1052.3622047"
   id="svg2"
   version="1.1"
   inkscape:version="0.48.4 r9939"
   sodipodi:docname="keep_calm.svg">
  <defs
     id="defs4" />
  <sodipodi:namedview
     id="base"
     pagecolor="#ffffff"
     bordercolor="#666666"
     borderopacity="1.0"
     inkscape:pageopacity="0.0"
     inkscape:pageshadow="2"
     inkscape:zoom="0.49497475"
     inkscape:cx="-536.16952"
     inkscape:cy="654.99258"
     inkscape:document-units="px"
     inkscape:current-layer="layer1"
     showgrid="false"
     inkscape:window-width="1883"
     inkscape:window-height="1026"
     inkscape:window-x="37"
     inkscape:window-y="24"
     inkscape:window-maximized="1" />
  <metadata
     id="metadata7">
    <rdf:RDF>
      <cc:Work
         rdf:about="">
        <dc:format>image/svg+xml</dc:format>
        <dc:type
           rdf:resource="http://purl.org/dc/dcmitype/StillImage" />
        <dc:title />
      </cc:Work>
    </rdf:RDF>
  </metadata>
  <g
     inkscape:label="Capa 1"
     inkscape:groupmode="layer"
     id="layer1">
    <rect
       style="color:#000000;display:inline;overflow:visible;visibility:visible;opacity:1;fill:#d40000;fill-opacity:1;stroke:none;stroke-width:2;stroke-linecap:butt;stroke-linejoin:miter;stroke-miterlimit:4;stroke-dasharray:2, 4;stroke-dashoffset:0;stroke-opacity:1;marker:none;enable-background:accumulate"
       id="rect3350"
       width="591.9494"
       height="882.87329"
       x="76.771599"
       y="13.925394"
       rx="8.9193802"
       ry="9.7437897"
       inkscape:export-xdpi="90.012924"
       inkscape:export-ydpi="90.012924" />
    <text
       xml:space="preserve"
       style="font-style:normal;font-weight:normal;font-size:133.20237732px;line-height:125%;font-family:Sans;letter-spacing:0px;word-spacing:0px;fill:#fdf8c7;fill-opacity:1;stroke:none;stroke-width:4.6;stroke-linecap:butt;stroke-linejoin:miter;stroke-opacity:1;stroke-miterlimit:4;stroke-dasharray:none;opacity:0.97;"
       x="199.62561"
       y="402.04016"
       id="text3336"
       sodipodi:linespacing="125%"
       inkscape:export-xdpi="90.012924"
       inkscape:export-ydpi="90.012924"><tspan
         sodipodi:role="line"
         id="tspan3338"
         x="199.62561"
         y="402.04016"
         style="-inkscape-font-specification:'DejaVu Sans';font-family:'DejaVu Sans';font-weight:normal;font-style:normal;font-stretch:normal;font-variant:normal;stroke:#fdf8c7;stroke-opacity:1;stroke-width:4.6;stroke-miterlimit:4;stroke-dasharray:none;fill:#fdf8c7;fill-opacity:1">KEEP</tspan></text>
    <text
       xml:space="preserve"
       style="font-style:normal;font-weight:normal;font-size:98.66073608px;line-height:125%;font-family:Sans;letter-spacing:0px;word-spacing:0px;fill:#ffffff;fill-opacity:1;stroke:none;stroke-width:1px;stroke-linecap:butt;stroke-linejoin:miter;stroke-opacity:1;"
       x="235.85881"
       y="513.03131"
       id="text3340"
       sodipodi:linespacing="125%"
       inkscape:export-xdpi="90.012924"
       inkscape:export-ydpi="90.012924"><tspan
         sodipodi:role="line"
         id="tspan3342"
         x="235.85881"
         y="513.03131"
         style="color:#000000;font-style:normal;font-variant:normal;font-weight:normal;font-stretch:normal;font-size:98.66073608px;line-height:125%;font-family:Sans;text-indent:0;text-align:start;text-decoration:none;text-decoration-line:none;text-decoration-style:solid;text-decoration-color:#000000;letter-spacing:0px;word-spacing:0px;text-transform:none;direction:ltr;block-progression:tb;writing-mode:lr-tb;baseline-shift:baseline;text-anchor:start;white-space:normal;clip-rule:nonzero;display:inline;overflow:visible;visibility:visible;opacity:1;isolation:auto;mix-blend-mode:normal;color-interpolation:sRGB;color-interpolation-filters:linearRGB;solid-color:#000000;solid-opacity:1;fill:#fdf8c7;fill-opacity:1;fill-rule:nonzero;stroke:#fdf8c7;stroke-width:2;stroke-linecap:butt;stroke-linejoin:miter;stroke-miterlimit:4;stroke-dasharray:none;stroke-dashoffset:0;stroke-opacity:1;filter-blend-mode:normal;filter-gaussianBlur-deviation:0;color-rendering:auto;image-rendering:auto;shape-rendering:auto;text-rendering:auto;enable-background:accumulate">CALM</tspan></text>
    <text
       xml:space="preserve"
       style="font-style:normal;font-weight:normal;font-size:52.33324051px;line-height:125%;font-family:Sans;letter-spacing:0px;word-spacing:0px;fill:#ffffff;fill-opacity:1;stroke:none;stroke-width:2.6;stroke-linecap:butt;stroke-linejoin:miter;stroke-opacity:1;stroke-miterlimit:4;stroke-dasharray:none;"
       x="315.77878"
       y="589.51819"
       id="text3344"
       sodipodi:linespacing="125%"
       inkscape:export-xdpi="90.012924"
       inkscape:export-ydpi="90.012924"><tspan
         sodipodi:role="line"
         id="tspan3346"
         x="315.77878"
         y="589.51819"
         style="stroke:#fdf8c7;stroke-opacity:1;stroke-width:2.6;stroke-miterlimit:4;stroke-dasharray:none;fill:#fdf8c7;fill-opacity:1">AND</tspan></text>
    <text
       xml:space="preserve"
       style="font-style:normal;font-weight:normal;font-size:98.66073608px;line-height:125%;font-family:Sans;letter-spacing:0px;word-spacing:0px;fill:#fdf8c7;fill-opacity:1;stroke:none;stroke-width:2;stroke-linecap:butt;stroke-linejoin:miter;stroke-opacity:1;stroke-miterlimit:4;stroke-dasharray:none;"
       x="272.30258"
       y="703.72223"
       id="text3348"
       sodipodi:linespacing="125%"
       inkscape:export-xdpi="90.012924"
       inkscape:export-ydpi="90.012924"><tspan
         sodipodi:role="line"
         id="tspan3350"
         x="272.30258"
         y="703.72223"
         style="stroke:#fdf8c7;stroke-opacity:1;stroke-width:2;stroke-miterlimit:4;stroke-dasharray:none;fill:#fdf8c7;fill-opacity:1;">USE</tspan></text>
    <text
       xml:space="preserve"
       style="font-style:normal;font-weight:normal;font-size:133.20237732px;line-height:125%;font-family:Sans;letter-spacing:0px;word-spacing:0px;fill:#ffffff;fill-opacity:1;stroke:none;stroke-width:1px;stroke-linecap:butt;stroke-linejoin:miter;stroke-opacity:1;"
       x="155.75598"
       y="839.9256"
       id="text3352"
       sodipodi:linespacing="125%"
       inkscape:export-xdpi="90.012924"
       inkscape:export-ydpi="90.012924"><tspan
         sodipodi:role="line"
         id="tspan3354"
         x="155.75598"
         y="839.9256"
         style="color:#000000;font-style:normal;font-variant:normal;font-weight:normal;font-stretch:normal;font-size:133.20237732px;line-height:125%;font-family:'DejaVu Sans';text-indent:0;text-align:start;text-decoration:none;text-decoration-line:none;text-decoration-style:solid;text-decoration-color:#000000;letter-spacing:0px;word-spacing:0px;text-transform:none;direction:ltr;block-progression:tb;writing-mode:lr-tb;baseline-shift:baseline;text-anchor:start;white-space:normal;clip-rule:nonzero;display:inline;overflow:visible;visibility:visible;opacity:1;isolation:auto;mix-blend-mode:normal;color-interpolation:sRGB;color-interpolation-filters:linearRGB;solid-color:#000000;solid-opacity:1;fill:#fdf8c7;fill-opacity:1;fill-rule:nonzero;stroke:#fdf8c7;stroke-width:4.5999999;stroke-linecap:butt;stroke-linejoin:miter;stroke-miterlimit:4;stroke-dasharray:none;stroke-dashoffset:0;stroke-opacity:1;filter-blend-mode:normal;filter-gaussianBlur-deviation:0;color-rendering:auto;image-rendering:auto;shape-rendering:auto;text-rendering:auto;enable-background:accumulate;-inkscape-font-specification:'DejaVu Sans'">FADES</tspan></text>
    <g
       id="g3454"
       transform="matrix(1.0601407,0,0,1.0601407,668.35497,60.846877)"
       inkscape:export-xdpi="90.012924"
       inkscape:export-ydpi="90.012924">
      <g
         inkscape:label="Capa 1"
         id="layer1-6"
         transform="matrix(0.84234108,0,0,0.84234108,-628.55265,-218.46714)">
        <g
           id="g4500"
           transform="matrix(1.1340549,0,0,1.1340549,-373.08599,-152.90101)">
          <path
             sodipodi:nodetypes="sssssssscscssssscsscssscsscsscscccsssssssscssccccscccscsscscssscssssccssscssssssscssscccsscscsssccssccssssssscscsscsscccscssssssscssccsccsccscsscsscsccssssssscssssscccssccsscssscssssscssssscsssssssssssscsscscscssssssscscsccsssscscsccc"
             inkscape:connector-curvature="0"
             id="path4484"
             d="m 662.05422,523.12019 c 43.4303,-12.69542 62.5899,-18.71078 82.5,-25.90175 11.825,-4.27086 25.4583,-8.96579 30.2963,-10.43319 13.0942,-3.97164 13.1353,-4.0389 12.3241,-20.20236 -0.3682,-7.33542 -0.9209,-13.99274 -1.2284,-14.79403 -0.3075,-0.80129 -1.8504,-1.74051 -3.4286,-2.08714 -4.0965,-0.89975 -7.9634,-4.25491 -7.9634,-6.90956 0,-2.7129 2.4964,-5.17616 6.1764,-6.09444 4.9387,-1.23236 6.1861,-3.69548 5.4299,-10.7218 -0.371,-3.44639 -0.9464,-10.20021 -1.2787,-15.00848 -0.3448,-4.98979 -1.1323,-9.18061 -1.8345,-9.76343 -2.3658,-1.96342 -31.0607,-9.84565 -57.9931,-15.93018 -24.1343,-5.45239 -26.5858,-5.98715 -44,-9.59793 -39.6679,-8.22501 -38.1606,-7.99066 -42.1396,-6.55182 -11.4148,4.12763 -24.6557,15.53397 -30.2784,26.08314 -5.4678,10.25873 -6.1566,15.80366 -6.7706,54.50253 l -0.5553,35 2.641,7.82783 c 3.6385,10.78425 8.3567,17.75893 15.6413,23.12154 8.3415,6.14064 20.2115,12.56318 23.0847,12.49055 1.3073,-0.0331 10.0269,-2.29632 19.3769,-5.02948 z m -20.8837,-2.66044 c -0.8598,-7.14742 -2.5172,-35.79882 -3.0533,-52.78415 l -0.4745,-15.03414 13.2057,-3.36582 c 13.6192,-3.47117 34.3957,-10.43471 83.7058,-28.05508 37.4361,-13.37735 46.036,-16.31938 46.4118,-15.87757 0.1717,0.20172 0.6072,5.42926 0.9679,11.61676 0.6364,10.91708 0.5946,11.25 -1.4116,11.25 -3.3321,0 -7.977,2.89332 -9.0111,5.613 -2.6173,6.88409 0.1612,13.64748 7.2023,17.53156 l 4.3407,2.39446 0,13.48049 0,13.48049 -15,5.21659 c -41.0527,14.27699 -67.5193,22.89637 -93,30.28734 -15.4,4.46694 -28.45,8.28291 -29,8.47994 -3.4017,1.2186 -4.324,0.419 -4.8837,-4.23387 z m 22.7287,-11.07874 c 3.4802,-3.84556 0.8562,-10.17126 -4.2192,-10.17126 -3.1804,0 -7.1344,4.25126 -6.4364,6.92035 1.2136,4.64079 7.627,6.59746 10.6556,3.25091 z m -7.7141,-2.02664 c -1.8284,-2.0203 -0.0826,-3.19957 0.9409,-5.14462 2.0276,-3.85326 5.43203,3.91042 4.71623,5.77574 -0.7376,1.92208 -3.64663,1.59048 -5.65713,-0.63112 z m 4.895,-5.99476 c 0.9642,-0.98989 2.464,1.3036 2.3929,3.65916 l -0.081,2.69098 -0.53599,-0.38176 c -1.46944,-1.04661 -1.96331,-5.7758 -1.77571,-5.96838 z m 40.5327,-5.82181 c 3.424,-3.09331 3.9414,-4.12459 3.9414,-7.85552 0,-3.56811 -0.5206,-4.73276 -3.0767,-6.88364 -8.7258,-7.34223 -22.0365,2.63947 -16.3521,12.2624 1.9335,3.2732 4.4186,4.85817 8.7374,5.5728 2.1868,0.36184 3.6813,-0.32364 6.75,-3.09604 z m -11.4674,-0.57805 c -2.4189,-2.15948 -3.0827,-4.48703 -2.7467,-9.63084 0.1412,-2.1626 0.4895,-2.32665 3.7989,-1.7896 7.0205,1.13928 11.523,9.03959 6.9695,12.22902 -2.8871,2.02223 -5.1007,1.7991 -8.0217,-0.80858 z m 10.3923,-6.78983 c -1.4905,-3.59833 -4.5441,-4.57695 -7.706,-4.57695 -3.0677,0 -2.8993,-3.18907 0.2419,-3.97745 3.0638,-0.76896 8.2051,1.21092 9.5188,3.66564 1.2039,2.2495 1.2634,7.92859 0.083,7.92859 -0.4833,0 -1.4453,-1.36792 -2.1378,-3.03983 z m -25.0243,-8.57929 c 11.0359,-9.28608 6.4762,-22.38088 -7.7932,-22.38088 -4.4871,0 -5.2603,0.36201 -8.5496,4.00288 -4.1319,4.57348 -4.7148,8.88015 -1.9816,14.64004 3.1557,6.64998 12.5792,8.57226 18.3244,3.73796 z m -15.2092,-2.46866 c -2.1321,-2.2823 -2.75,-3.9265 -2.75,-7.31721 0,-6.20131 2.5161,-9.09598 7.1506,-8.22653 3.7809,0.70929 8.1963,4.71614 9.332,8.46846 1.1516,3.80474 -0.3161,9.15539 -2.7878,10.16349 -3.434,1.40055 -7.939,0.1294 -10.9448,-3.08821 z m 13.3911,-11.65895 c -0.6644,-1.23571 -3.1054,-3.21924 -5.4245,-4.40786 -4.5414,-2.3276 -3.7052,-3.44105 1.8076,-2.40684 5.3192,0.99787 9.4758,5.04059 9.4758,9.21607 0,1.91226 -0.5175,4.44385 -1.1501,5.62575 -1.0853,2.0279 -1.2162,1.92565 -2.3254,-1.81574 -0.6464,-2.18056 -1.7189,-4.97568 -2.3834,-6.21138 z m 89.9358,5.82365 c 6.0998,-6.09973 2.0022,-15.07692 -6.8816,-15.07692 -7.1843,0 -10.9576,6.08123 -7.8355,12.62824 2.8381,5.95167 10.0193,7.1465 14.7171,2.44868 z m -10.5321,0.3019 c -0.8903,-0.34165 -2.2774,-1.89485 -3.0824,-3.45156 -3.3857,-6.54718 3.8966,-11.10014 8.465,-5.2924 2.0024,2.54562 2.7755,7.32889 1.4059,8.69847 -0.8387,0.8387 -4.6548,0.86427 -6.7885,0.0455 z m 4.715,-11.31621 c -3.3726,-2.77999 -3.5038,-3.06261 -1.4219,-3.06261 5.3917,0 8.7482,4.12822 7.5685,9.30865 l -1.31951,2.79614 -0.25939,-2.79218 c -0.16853,-1.81416 -2.5159,-4.55876 -4.5677,-6.25 z m -34.5736,-3.01284 c 6.4873,-3.95559 7.2262,-10.16347 1.779,-14.94618 -2.8441,-2.49711 -4.4224,-3.10359 -8.0769,-3.10359 -12.4282,0 -14.3953,16.9486 -2.2491,19.37784 4.4994,0.89988 5.0277,0.81779 8.547,-1.32807 z m -12.4855,-2.07745 c -3.0724,-2.86233 -3.7544,-6.47837 -1.7879,-9.47961 1.8823,-2.87275 4.32323,-3.48604 8.36813,-1.39439 3.6772,1.90158 6.27498,5.35759 6.27498,8.69354 0,3.4959 -1.67851,4.20814 -6.53401,4.20814 -2.7814,0 -4.8607,-0.66699 -6.3212,-2.02768 z m 10.7993,-8.48521 c -0.825,-0.99224 -3.3,-2.62287 -5.5,-3.62363 -2.2,-1.00075 -3.55,-1.86288 -3,-1.91583 0.55,-0.053 2.034,-0.28828 3.2977,-0.52297 3.0689,-0.56991 8.03,2.10298 9.3726,5.04968 0.6211,1.36326 0.7619,3.5832 0.3299,5.2019 l -0.7536,2.82374 -1.1233,-2.60441 c -0.6178,-1.43243 -1.7983,-3.41624 -2.6233,-4.40848 z m 32.8114,-6.52607 c 4.2146,-3.92649 1.5374,-9.96104 -4.4191,-9.96104 -3.0375,0 -3.6825,0.45027 -4.9334,3.4441 -1.7169,4.10905 -1.0493,6.38092 2.2426,7.6325 3.5263,1.34072 4.6652,1.16202 7.1099,-1.11556 z m -7.2296,-0.56803 c -0.87,-0.33384 -1.5818,-1.68384 -1.5818,-3 0,-3.10068 3.2927,-3.24091 5.4016,-0.23004 2.2814,3.25721 0.399,4.84897 -3.8198,3.23004 z m 2.7772,-8.08531 c 1.0653,-1.06533 4.641,1.91903 4.641,3.87351 0,1.97913 -0.1594,1.93879 -2.5554,-0.64647 -1.4054,-1.51652 -2.344,-2.96869 -2.0856,-3.22704 z m -119.359,87.86327 c -5.2226,-2.91766 -12.7123,-8.59729 -15.2867,-11.59235 -3.0544,-3.55328 -7.4979,-12.95862 -9.1689,-19.40707 -1.2779,-4.93192 -1.5809,-11.36134 -1.5113,-32.07154 0.048,-14.24665 0.4133,-27.12226 0.8118,-28.61245 0.7157,-2.67624 0.77,-2.64106 4.4289,2.86955 3.9109,5.89026 10.036,11.24262 19.6726,17.19068 l 5.8344,3.60116 0.6675,15.17553 c 0.3672,8.34653 1.0872,22.60052 1.6,31.67552 0.5128,9.075 0.9367,18.39838 0.942,20.71862 0.011,4.78806 -0.2073,4.80042 -7.9903,0.45235 z m -1.1667,-73.63442 c -9.0508,-5.29813 -16.7562,-12.51253 -19.8852,-18.61815 -3.3366,-6.51091 -3.7847,-16.82022 -1.0321,-23.74796 2.9261,-7.3646 9.0972,-16.16172 14.7969,-21.09363 6.5739,-5.68838 18.1621,-11.38216 21.8959,-10.75839 2.9632,0.49503 14.8555,2.91583 56.8912,11.58079 13.2,2.72095 30.3,6.60913 38,8.64039 7.7,2.03126 15.575,4.00985 17.5,4.39687 6.6168,1.3303 22,6.37959 22,7.22115 0,0.46331 -0.5625,0.84374 -1.25,0.8454 -0.6875,0.002 -9.8,3.19848 -20.25,7.10404 -10.45,3.90557 -27.1,9.93654 -37,13.40216 -9.9,3.46562 -25.1461,8.80934 -33.8801,11.87493 -8.7341,3.06559 -22.0091,7.19917 -29.5,9.18574 -7.491,1.98658 -14.0699,3.76051 -14.6199,3.94208 -3.2161,1.06175 -6.8847,-0.005 -13.6667,-3.97542 z m 29.6667,-15.43759 c 3.452,-1.51932 6.6884,-5.73627 6.3324,-8.2511 -0.7142,-5.04469 -12.3484,-7.59497 -19.3945,-4.25136 -5.5852,2.65033 -5.7782,8.14191 -0.3843,10.93124 3.6604,1.89286 10.8158,2.72898 13.4464,1.57122 z m -11.9529,-2.25948 c -4.9531,-2.25674 -4.59243,-4.83948 2.40567,-4.83948 3.7656,0 12.70717,1.18566 12.70717,2.20963 0,2.87686 -10.32664,4.81064 -15.11284,2.62985 z m 3.7029,-5.33948 c -3.9875,0 -7.25,-0.32713 -7.25,-0.72695 0,-0.39982 1.1932,-1.50875 2.6515,-2.46428 3.7081,-2.42964 12.5367,-2.35343 15.283,0.13193 3.0716,2.77983 2.7143,4.77883 -0.6845,3.82835 -1.5125,-0.42298 -6.0125,-0.76905 -10,-0.76905 z m 41.2056,-14.03225 c 10.533,-4.00862 11.5542,-11.76311 2.0426,-15.50941 -5.0718,-1.9976 -15.4236,-1.54723 -20.1771,0.87783 -4.7722,2.43461 -6.0157,5.07267 -4.3204,9.16558 2.185,5.27493 14.8538,8.3588 22.4549,5.466 z m -14.6719,-1.51102 c -3.7742,-1.04822 -6.7837,-3.30149 -6.7837,-5.07918 0,-1.79642 6.8656,-3.87782 12.7179,-3.85559 3.6656,0.0139 7.4293,0.774 10.2821,2.07648 l 4.5,2.05451 -2.9644,2.38208 c -4.2843,3.44264 -10.8505,4.3384 -17.7519,2.4217 z m 10.68167,-9.63452 c -5.6864,-1.50395 -4.12903,-1.1181 -9.50493,0.28248 -6.6214,1.7251 -9.30484,-0.11631 -3.38254,-2.94044 4.8455,-2.31065 14.9429,-2.20553 19.4377,0.20236 3.744,2.0057 5.7472,6.03627 2.3358,4.69997 -1.0183,-0.39888 -5.45253,-1.33625 -8.88603,-2.24437 z m 50.51193,5.70047 c 2.4147,-2.41468 1.7305,-4.60531 -2.0488,-6.55967 -5.3455,-2.76424 -10.9285,-0.99999 -10.9285,3.45343 0,4.78574 9.1159,6.9677 12.9773,3.10624 z m -9.5362,-0.49088 c -1.7956,-1.35814 -1.5851,-2.79047 2.8089,-2.81989 4.4618,-0.0299 6.2952,2.49793 3.5,3.62581 -2.3115,0.9327 -4.3554,0.6716 -6.3089,-0.80592 z m 0.8115,-3.5318 c -2.1066,0 -2.3027,-0.23477 -1.2526,-1.5 1.7562,-2.11611 5.3665,-1.86177 8.1392,0.5734 l 2.3608,2.0734 -3.375,-0.5734 c -1.8563,-0.31537 -4.4989,-0.5734 -5.8724,-0.5734 z m -77.0865,-2.02506 c 4.8138,-2.54292 6.9538,-8.07995 4.2693,-11.04628 -4.3254,-4.7795 -15.9031,-4.93034 -21.4307,-0.27921 -4.941,4.15762 -3.6936,9.05752 2.9864,11.7303 5.2792,2.11234 9.6461,1.98763 14.175,-0.40481 z m -14.6661,-1.2655 c -4.8223,-2.43247 -2.28616,-5.79469 5.03804,-6.96588 4.6904,-0.75003 12.71976,1.92821 12.19856,3.64665 -0.1851,0.61038 -2.2781,2.10072 -4.6512,3.31186 -4.3836,2.23722 -8.1604,2.23944 -12.5854,0.007 z m -3.5,-6.12788 c 0,-4.90964 15.8649,-7.71664 20.0365,-3.54509 2.6102,2.61018 -0.12824,4.33351 -3.48484,3.05731 -3.6063,-1.37111 -9.53286,-1.24111 -13.05166,0.3701 -1.65,0.75553 -3.1125,1.41023 -3.25,1.4549 -0.1375,0.0447 -0.25,-0.55708 -0.25,-1.33722 z m 139.4228,43.89586 c 0.9316,-1.42175 2.6801,-2.95166 3.8855,-3.39981 2.4151,-0.89787 4.9417,-0.31813 4.484,1.02889 -0.3153,0.92782 -9.0404,5.62233 -9.6778,5.20706 -0.212,-0.13813 0.3768,-1.41439 1.3083,-2.83614 z"
             style="fill:#000000" />
          <path
             inkscape:connector-curvature="0"
             id="path4488"
             d="m 627.72678,516.51863 c -10.72102,-7.25653 -15.69637,-13.34368 -19.30996,-23.625 -2.44239,-6.94902 -2.77867,-11.46428 -2.77867,-37.30965 l 0,-29.40386 4.75872,6.2323 c 2.61729,3.42776 9.09155,9.19279 14.38725,12.81118 l 9.62855,6.5789 0.85966,14.12718 c 1.74092,28.60946 2.70375,56.49229 1.95074,56.49229 -0.42599,0 -4.69932,-2.6565 -9.49629,-5.90334 z"
             style="color:#000000;display:inline;overflow:visible;visibility:visible;opacity:1;fill:#fdf8c7;fill-opacity:1;stroke:none;stroke-width:2;stroke-linecap:butt;stroke-linejoin:miter;stroke-miterlimit:4;stroke-dasharray:2, 4;stroke-dashoffset:0;stroke-opacity:1;marker:none;enable-background:accumulate" />
          <path
             inkscape:connector-curvature="0"
             id="path4490"
             d="m 641.26475,514.4351 c -0.48929,-5.15673 -1.30173,-21.04552 -1.80542,-35.30842 l -0.91578,-25.93254 6.11887,-1.54982 c 12.6639,-3.20756 46.48468,-14.37194 90.15456,-29.76039 24.82873,-8.74918 45.21802,-15.80354 45.30956,-15.67635 0.0915,0.12718 0.59162,4.69649 1.11133,10.15401 l 0.9449,9.92276 -5.25496,2.57841 c -9.57595,4.69857 -9.29571,15.8029 0.55524,22.00072 l 4.45359,2.80201 0.0535,13.37079 0.0535,13.37078 -32.98922,11.25721 c -18.14402,6.19147 -38.92722,13.10966 -46.18485,15.37375 -27.92688,8.7121 -55.93141,16.77297 -58.27154,16.77297 -2.00292,0 -2.60404,-1.69087 -3.33324,-9.37589 z m 23.82493,-8.10517 c 0.51529,-5.28053 -2.52104,-8.16623 -7.3241,-6.96074 -2.15329,0.54044 -3.79976,2.1869 -4.3402,4.3402 -1.20549,4.80305 1.68021,7.83939 6.96074,7.32409 3.66153,-0.3573 4.34625,-1.04202 4.70356,-4.70355 z m 37.34307,-10.54146 c 4.39647,-4.13027 4.46569,-12.6144 0.12771,-15.65284 -7.38877,-5.1753 -17.74818,-0.58011 -17.74818,7.87268 0,9.39457 10.8177,14.17102 17.62047,7.78016 z m -26.2906,-15.03709 c 0.20726,0 1.61543,-2.03145 3.12927,-4.51432 3.7553,-6.15913 3.51021,-11.5328 -0.71887,-15.76188 -2.96628,-2.96628 -4.53901,-3.41958 -10.62427,-3.06216 -5.89042,0.34598 -7.63396,1.07985 -9.9455,4.18616 -3.57224,4.80044 -3.57846,11.27471 -0.0154,16.04702 3.28915,4.40546 7.89078,5.84028 13.64006,4.25306 2.28684,-0.63134 4.32747,-1.14788 4.53473,-1.14788 z m 86.96241,-8.43494 c 7.35154,-5.78272 3.4046,-16.56742 -6.06326,-16.56742 -9.22866,0 -12.93542,9.41518 -6.31373,16.03687 4.16516,4.16515 7.57076,4.31114 12.37699,0.53055 z m -38.11729,-15.99638 c 5.26031,-4.42626 5.52787,-9.16622 0.78514,-13.90895 -2.80689,-2.80688 -4.6117,-3.40519 -9.23703,-3.06216 -14.61363,1.08383 -13.53066,20.24089 1.15954,20.51152 1.6603,0.0306 4.94185,-1.5626 7.29235,-3.54041 z m 29.33151,-15.6159 c 2.42492,-1.96358 2.93035,-3.38424 2.21625,-6.22944 -1.32602,-5.28328 -7.41242,-6.62773 -10.84024,-2.39455 -3.34497,4.13085 -3.20944,6.37678 0.54341,9.00538 3.8913,2.72557 4.26545,2.70791 8.08058,-0.38139 z"
             style="color:#000000;display:inline;overflow:visible;visibility:visible;opacity:1;fill:#fdf8c7;fill-opacity:1;stroke:none;stroke-width:2;stroke-linecap:butt;stroke-linejoin:miter;stroke-miterlimit:4;stroke-dasharray:2, 4;stroke-dashoffset:0;stroke-opacity:1;marker:none;enable-background:accumulate" />
          <path
             inkscape:connector-curvature="0"
             id="path4492"
             d="m 630.73224,445.65936 c -3.38737,-1.70831 -9.36374,-6.23132 -13.28082,-10.05112 -8.26847,-8.06314 -11.3267,-16.22621 -9.82663,-26.22939 1.07665,-7.17961 9.2593,-20.60886 16.02727,-26.30373 5.55842,-4.6771 17.06321,-10.66757 20.48521,-10.66651 8.95217,0.003 121.74585,25.53899 130.57526,29.56194 2.77873,1.26608 -0.72144,2.87177 -27.03313,12.40132 -63.39317,22.9597 -99.20825,34.45586 -107.2094,34.41279 -1.96839,-0.0106 -6.35039,-1.41699 -9.73776,-3.1253 z m 32.44657,-17.57619 c 3.22043,-3.55853 2.29566,-8.6508 -1.97987,-10.90219 -4.02117,-2.11744 -14.28666,-1.48841 -17.36198,1.06388 -3.05692,2.53702 -2.5409,7.8574 1.00281,10.33952 4.47766,3.13627 15.31521,2.84008 18.33904,-0.50121 z m 34.02807,-21.76782 c 5.28339,-4.44568 5.41355,-7.8053 0.45383,-11.71342 -3.29347,-2.59516 -5.20574,-2.94035 -13.87799,-2.50522 -11.93928,0.59906 -16.67303,3.78127 -15.07807,10.13609 1.18113,4.706 7.54371,7.55233 17.04282,7.6242 5.75253,0.0435 8.03818,-0.66287 11.45941,-3.54165 z m 42.33159,-3.78335 c 1.24231,-2.04557 0.91407,-3.02253 -1.75007,-5.20883 -5.54368,-4.54935 -12.69456,-2.81784 -12.69456,3.07385 0,5.36282 11.45598,7.05606 14.44463,2.13498 z m -84.24286,-6.90291 c 7.42197,-6.81618 1.25674,-14.33935 -10.80157,-13.1807 -7.74572,0.74427 -12.46451,4.05926 -12.46451,8.75642 0,8.25734 15.81722,11.26515 23.26608,4.42428 z"
             style="color:#000000;display:inline;overflow:visible;visibility:visible;opacity:1;fill:#fdf8c7;fill-opacity:1;stroke:none;stroke-width:2;stroke-linecap:butt;stroke-linejoin:miter;stroke-miterlimit:4;stroke-dasharray:2, 4;stroke-dashoffset:0;stroke-opacity:1;marker:none;enable-background:accumulate" />
        </g>
      </g>
    </g>
    <g
       id="layer1-3"
       inkscape:label="Capa 1"
       transform="translate(-1225.2734,-132.80111)">
      <g
         inkscape:export-ydpi="180.0591"
         inkscape:export-xdpi="180.0591"
         inkscape:export-filename="/home/facundo/devel/reps/fades/resources/remera-adelante.png"
         transform="translate(1351.3053,494.29405)"
         id="g3993">
        <g
           transform="matrix(0.69490099,0,0,0.69490099,-1249.2585,-142.48269)"
           style="font-size:133.20237732px;font-style:normal;font-weight:normal;line-height:125%;letter-spacing:0px;word-spacing:0px;opacity:0.97000002;fill:#d40000;fill-opacity:1;stroke:#d40000;stroke-opacity:1;font-family:Sans"
           id="text3336-5">
          <path
             inkscape:connector-curvature="0"
             d="m 212.6987,304.93511 13.13812,0 0,41.04038 43.57695,-41.04038 16.91046,0 -48.19481,45.26799 51.64194,51.83706 -17.3007,0 -46.63384,-46.76392 0,46.76392 -13.13812,0 0,-97.10505"
             style="font-variant:normal;font-stretch:normal;fill:#d40000;fill-opacity:1;stroke:#d40000;stroke-opacity:1;font-family:DejaVu Sans;-inkscape-font-specification:DejaVu Sans"
             id="path3035-7" />
          <path
             inkscape:connector-curvature="0"
             d="m 300.11276,304.93511 61.39797,0 0,11.05684 -48.25985,0 0,28.74777 46.2436,0 0,11.05684 -46.2436,0 0,35.18676 49.43057,0 0,11.05684 -62.56869,0 0,-97.10505"
             style="font-variant:normal;font-stretch:normal;fill:#d40000;fill-opacity:1;stroke:#d40000;stroke-opacity:1;font-family:DejaVu Sans;-inkscape-font-specification:DejaVu Sans"
             id="path3037-7" />
          <path
             inkscape:connector-curvature="0"
             d="m 384.40489,304.93511 61.39797,0 0,11.05684 -48.25985,0 0,28.74777 46.2436,0 0,11.05684 -46.2436,0 0,35.18676 49.43057,0 0,11.05684 -62.56869,0 0,-97.10505"
             style="font-variant:normal;font-stretch:normal;fill:#d40000;fill-opacity:1;stroke:#d40000;stroke-opacity:1;font-family:DejaVu Sans;-inkscape-font-specification:DejaVu Sans"
             id="path3039-0" />
          <path
             inkscape:connector-curvature="0"
             d="m 481.83514,315.73178 0,36.48757 16.52022,0 c 6.11373,5e-5 10.83998,-1.58259 14.17877,-4.74794 3.33867,-3.16523 5.00803,-7.67468 5.00809,-13.52836 -6e-5,-5.81019 -1.66942,-10.29796 -5.00809,-13.46333 -3.33879,-3.16521 -8.06504,-4.74785 -14.17877,-4.74794 l -16.52022,0 m -13.13812,-10.79667 29.65834,0 c 10.88334,9e-5 19.10008,2.47162 24.65024,7.41458 5.59339,4.89978 8.39012,12.09756 8.39019,21.59336 -7e-5,9.58265 -2.7968,16.82379 -8.39019,21.72343 -5.55016,4.89974 -13.7669,7.34959 -24.65024,7.34955 l -16.52022,0 0,39.02413 -13.13812,0 0,-97.10505"
             style="font-variant:normal;font-stretch:normal;fill:#d40000;fill-opacity:1;stroke:#d40000;stroke-opacity:1;font-family:DejaVu Sans;-inkscape-font-specification:DejaVu Sans"
             id="path3041-3" />
        </g>
        <g
           transform="matrix(0.69490099,0,0,0.69490099,-1249.2585,-142.48269)"
           style="font-size:98.66073608px;font-style:normal;font-weight:normal;line-height:125%;letter-spacing:0px;word-spacing:0px;fill:#d40000;fill-opacity:1;stroke:#d40000;stroke-opacity:1;font-family:Sans"
           id="text3340-6">
          <path
             inkscape:connector-curvature="0"
             d="m 299.40056,446.64728 0,10.2611 c -3.2759,-3.05097 -6.77656,-5.33121 -10.50197,-6.84073 -3.6934,-1.5094 -7.62762,-2.26412 -11.80268,-2.26419 -8.22176,7e-5 -14.51651,2.52118 -18.88428,7.56335 -4.36781,5.01017 -6.5517,12.2684 -6.55169,21.77473 -1e-5,9.47428 2.18388,16.73252 6.55169,21.77473 4.36777,5.01013 10.66252,7.51518 18.88428,7.51518 4.17506,0 8.10928,-0.75472 11.80268,-2.26419 3.72541,-1.50945 7.22607,-3.78969 10.50197,-6.84073 l 0,10.16475 c -3.40437,2.31236 -7.01743,4.04663 -10.83919,5.20281 -3.78975,1.15618 -7.80426,1.73427 -12.04355,1.73427 -10.88739,0 -19.46239,-3.32401 -25.72501,-9.97205 -6.26265,-6.68014 -9.39397,-15.78506 -9.39397,-27.31477 0,-11.56176 3.13132,-20.66667 9.39397,-27.31476 6.26262,-6.68009 14.83762,-10.02016 25.72501,-10.02023 4.30352,7e-5 8.35015,0.57816 12.1399,1.73427 3.82176,1.12413 7.40271,2.82628 10.74284,5.10646"
             style="font-variant:normal;font-stretch:normal;text-indent:0;text-align:start;text-decoration:none;line-height:125%;text-transform:none;direction:ltr;block-progression:tb;writing-mode:lr-tb;text-anchor:start;baseline-shift:baseline;color:#000000;fill:#d40000;fill-opacity:1;fill-rule:nonzero;stroke:#d40000;stroke-width:2;stroke-miterlimit:4;stroke-opacity:1;stroke-dashoffset:0;visibility:visible;display:inline;overflow:visible;enable-background:accumulate;font-family:Sans"
             id="path3026-9" />
          <path
             inkscape:connector-curvature="0"
             d="m 338.56618,450.69391 -13.19973,35.79342 26.44763,0 -13.2479,-35.79342 m -5.49186,-9.58666 11.03189,0 27.41111,71.92406 -10.11658,0 -6.55169,-18.45071 -32.42123,0 -6.55169,18.45071 -10.2611,0 27.45929,-71.92406"
             style="font-variant:normal;font-stretch:normal;text-indent:0;text-align:start;text-decoration:none;line-height:125%;text-transform:none;direction:ltr;block-progression:tb;writing-mode:lr-tb;text-anchor:start;baseline-shift:baseline;color:#000000;fill:#d40000;fill-opacity:1;fill-rule:nonzero;stroke:#d40000;stroke-width:2;stroke-miterlimit:4;stroke-opacity:1;stroke-dashoffset:0;visibility:visible;display:inline;overflow:visible;enable-background:accumulate;font-family:Sans"
             id="path3028-3" />
          <path
             inkscape:connector-curvature="0"
             d="m 381.97111,441.10725 9.73119,0 0,63.73445 35.02263,0 0,8.18961 -44.75382,0 0,-71.92406"
             style="font-variant:normal;font-stretch:normal;text-indent:0;text-align:start;text-decoration:none;line-height:125%;text-transform:none;direction:ltr;block-progression:tb;writing-mode:lr-tb;text-anchor:start;baseline-shift:baseline;color:#000000;fill:#d40000;fill-opacity:1;fill-rule:nonzero;stroke:#d40000;stroke-width:2;stroke-miterlimit:4;stroke-opacity:1;stroke-dashoffset:0;visibility:visible;display:inline;overflow:visible;enable-background:accumulate;font-family:Sans"
             id="path3030-6" />
          <path
             inkscape:connector-curvature="0"
             d="m 436.88969,441.10725 14.50043,0 18.35437,48.94497 18.45071,-48.94497 14.50043,0 0,71.92406 -9.49031,0 0,-63.15636 -18.54706,49.33037 -9.77937,0 -18.54706,-49.33037 0,63.15636 -9.44214,0 0,-71.92406"
             style="font-variant:normal;font-stretch:normal;text-indent:0;text-align:start;text-decoration:none;line-height:125%;text-transform:none;direction:ltr;block-progression:tb;writing-mode:lr-tb;text-anchor:start;baseline-shift:baseline;color:#000000;fill:#d40000;fill-opacity:1;fill-rule:nonzero;stroke:#d40000;stroke-width:2;stroke-miterlimit:4;stroke-opacity:1;stroke-dashoffset:0;visibility:visible;display:inline;overflow:visible;enable-background:accumulate;font-family:Sans"
             id="path3032-4" />
        </g>
        <g
           transform="matrix(0.69490099,0,0,0.69490099,-1249.2585,-142.48269)"
           style="font-size:52.33324051px;font-style:normal;font-weight:normal;line-height:125%;letter-spacing:0px;word-spacing:0px;fill:#d40000;fill-opacity:1;stroke:#d40000;stroke-opacity:1;font-family:Sans"
           id="text3344-5">
          <path
             inkscape:connector-curvature="0"
             d="m 333.66612,556.45217 -7.00162,18.98613 14.02878,0 -7.02716,-18.98613 m -2.91308,-5.08512 5.85171,0 14.53985,38.15114 -5.3662,0 -3.47525,-9.78693 -17.1974,0 -3.47526,9.78693 -5.44286,0 14.56541,-38.15114"
             style="fill:#d40000;fill-opacity:1;stroke:#d40000;stroke-opacity:1"
             id="path3019-3" />
          <path
             inkscape:connector-curvature="0"
             d="m 356.68968,551.36705 6.95051,0 16.91631,31.91612 0,-31.91612 5.00845,0 0,38.15114 -6.95051,0 -16.91631,-31.91612 0,31.91612 -5.00845,0 0,-38.15114"
             style="fill:#d40000;fill-opacity:1;stroke:#d40000;stroke-opacity:1"
             id="path3021-9" />
          <path
             inkscape:connector-curvature="0"
             d="m 400.99917,555.60891 0,29.66742 6.23501,0 c 5.26397,10e-6 9.114,-1.19248 11.55011,-3.57746 2.45309,-2.38497 3.67965,-6.14983 3.67968,-11.29458 -3e-5,-5.11064 -1.22659,-8.84995 -3.67968,-11.21792 -2.43611,-2.38494 -6.28614,-3.57743 -11.55011,-3.57746 l -6.23501,0 m -5.16178,-4.24186 10.60464,0 c 7.39341,4e-5 12.81923,1.54176 16.27748,4.62516 3.45818,3.06643 5.18729,7.87045 5.18733,14.41208 -4e-5,6.57574 -1.73767,11.40532 -5.21289,14.48874 -3.47528,3.08344 -8.89258,4.62516 -16.25192,4.62516 l -10.60464,0 0,-38.15114"
             style="fill:#d40000;fill-opacity:1;stroke:#d40000;stroke-opacity:1"
             id="path3023-2" />
        </g>
        <g
           transform="matrix(0.69490099,0,0,0.69490099,-1249.2585,-142.48269)"
           style="font-size:98.66073608px;font-style:normal;font-weight:normal;line-height:125%;letter-spacing:0px;word-spacing:0px;fill:#d40000;fill-opacity:1;stroke:#d40000;stroke-opacity:1;font-family:Sans"
           id="text3348-8">
          <path
             inkscape:connector-curvature="0"
             d="m 280.87759,631.79817 9.77936,0 0,43.69399 c -2e-5,7.70789 1.39703,13.26397 4.19115,16.66826 2.79408,3.37221 7.32245,5.0583 13.58512,5.05829 6.23049,10e-6 10.7428,-1.68608 13.53695,-5.05829 2.79405,-3.40429 4.1911,-8.96037 4.19115,-16.66826 l 0,-43.69399 9.77936,0 0,44.89834 c -6e-5,9.37793 -2.32848,16.45952 -6.98525,21.24482 -4.62478,4.7853 -11.46551,7.17795 -20.52221,7.17795 -9.08889,0 -15.96173,-2.39265 -20.61855,-7.17795 -4.62473,-4.7853 -6.93709,-11.86689 -6.93708,-21.24482 l 0,-44.89834"
             style="fill:#d40000;fill-opacity:1;stroke:#d40000;stroke-opacity:1"
             id="path3012-3" />
          <path
             inkscape:connector-curvature="0"
             d="m 397.36278,634.1587 0,9.49032 c -3.69341,-1.76633 -7.178,-3.08309 -10.4538,-3.95029 -3.27589,-0.86707 -6.43932,-1.30063 -9.49032,-1.3007 -5.29919,7e-5 -9.39399,1.02778 -12.28442,3.08315 -2.85835,2.05549 -4.28752,4.97806 -4.2875,8.7677 -2e-5,3.17955 0.94741,5.58825 2.84228,7.22613 1.92694,1.60585 5.55606,2.90655 10.88736,3.90211 l 5.87726,1.20435 c 7.2582,1.38104 12.60553,3.82186 16.042,7.32248 3.46849,3.46857 5.20275,8.1254 5.20281,13.97051 -6e-5,6.96922 -2.34453,12.25231 -7.03343,15.84931 -4.65688,3.59701 -11.49761,5.39551 -20.5222,5.39551 -3.40434,0 -7.03346,-0.38539 -10.88737,-1.15618 -3.82183,-0.77079 -7.78817,-1.91091 -11.89902,-3.42037 l 0,-10.02023 c 3.95027,2.21603 7.82026,3.88606 11.60998,5.01012 3.78968,1.12407 7.51514,1.6861 11.17641,1.68609 5.55605,10e-6 9.84355,-1.09194 12.8625,-3.27584 3.01888,-2.18389 4.52833,-5.29915 4.52838,-9.34579 -5e-5,-3.53275 -1.092,-6.29474 -3.27585,-8.28596 -2.15182,-1.99117 -5.70065,-3.48457 -10.64649,-4.4802 l -5.92543,-1.15618 c -7.25826,-1.44519 -12.50924,-3.70938 -15.75296,-6.79256 -3.24373,-3.08311 -4.8656,-7.37061 -4.86559,-12.86251 -1e-5,-6.35894 2.23206,-11.36905 6.69621,-15.03035 4.49624,-3.66117 10.67859,-5.49178 18.54707,-5.49186 3.37215,8e-5 6.80858,0.30518 10.30927,0.91531 3.50061,0.61028 7.08156,1.52559 10.74285,2.74593"
             style="fill:#d40000;fill-opacity:1;stroke:#d40000;stroke-opacity:1"
             id="path3014-9" />
          <path
             inkscape:connector-curvature="0"
             d="m 416.87332,631.79817 45.47643,0 0,8.18961 -35.74524,0 0,21.29299 34.25184,0 0,8.18961 -34.25184,0 0,26.06224 36.61238,0 0,8.18961 -46.34357,0 0,-71.92406"
             style="fill:#d40000;fill-opacity:1;stroke:#d40000;stroke-opacity:1"
             id="path3016-8" />
        </g>
        <g
           transform="matrix(0.69490099,0,0,0.69490099,-1249.2585,-142.48269)"
           style="font-size:133.20237732px;font-style:normal;font-weight:normal;line-height:125%;letter-spacing:0px;word-spacing:0px;fill:#d40000;fill-opacity:1;stroke:#d40000;stroke-opacity:1;font-family:Sans"
           id="text3352-2">
          <path
             inkscape:connector-curvature="0"
             d="m 168.82907,742.82054 55.80451,0 0,11.05684 -42.66639,0 0,28.6177 38.50381,0 0,11.05684 -38.50381,0 0,46.37368 -13.13812,0 0,-97.10506"
             style="font-variant:normal;font-stretch:normal;text-indent:0;text-align:start;text-decoration:none;line-height:125%;text-transform:none;direction:ltr;block-progression:tb;writing-mode:lr-tb;text-anchor:start;baseline-shift:baseline;color:#000000;fill:#d40000;fill-opacity:1;fill-rule:nonzero;stroke:#d40000;stroke-width:4.5999999;stroke-miterlimit:4;stroke-opacity:1;stroke-dashoffset:0;visibility:visible;display:inline;overflow:visible;enable-background:accumulate;font-family:DejaVu Sans;-inkscape-font-specification:DejaVu Sans"
             id="path3001-1" />
          <path
             inkscape:connector-curvature="0"
             d="m 265.80404,755.76355 -17.82102,48.32489 35.70708,0 -17.88606,-48.32489 m -7.41458,-12.94301 14.89421,0 37.00789,97.10506 -13.65845,0 -8.84547,-24.91041 -43.77207,0 -8.84547,24.91041 -13.85357,0 37.07293,-97.10506"
             style="font-variant:normal;font-stretch:normal;text-indent:0;text-align:start;text-decoration:none;line-height:125%;text-transform:none;direction:ltr;block-progression:tb;writing-mode:lr-tb;text-anchor:start;baseline-shift:baseline;color:#000000;fill:#d40000;fill-opacity:1;fill-rule:nonzero;stroke:#d40000;stroke-width:4.5999999;stroke-miterlimit:4;stroke-opacity:1;stroke-dashoffset:0;visibility:visible;display:inline;overflow:visible;enable-background:accumulate;font-family:DejaVu Sans;-inkscape-font-specification:DejaVu Sans"
             id="path3003-8" />
          <path
             inkscape:connector-curvature="0"
             d="m 337.54341,753.61722 0,75.5117 15.86981,0 c 13.39823,10e-6 23.19762,-3.0352 29.39818,-9.10563 6.24379,-6.0704 9.36572,-15.65298 9.3658,-28.74778 -8e-5,-13.00798 -3.12201,-22.52553 -9.3658,-28.55266 -6.20056,-6.07033 -15.99995,-9.10554 -29.39818,-9.10563 l -15.86981,0 m -13.13813,-10.79668 26.9917,0 c 18.81824,10e-5 32.62844,3.92419 41.43062,11.77229 8.80202,7.8049 13.20307,20.03245 13.20316,36.68268 -9e-5,16.73705 -4.42282,29.02964 -13.2682,36.87781 -8.84554,7.84819 -22.63406,11.77228 -41.36558,11.77228 l -26.9917,0 0,-97.10506"
             style="font-variant:normal;font-stretch:normal;text-indent:0;text-align:start;text-decoration:none;line-height:125%;text-transform:none;direction:ltr;block-progression:tb;writing-mode:lr-tb;text-anchor:start;baseline-shift:baseline;color:#000000;fill:#d40000;fill-opacity:1;fill-rule:nonzero;stroke:#d40000;stroke-width:4.5999999;stroke-miterlimit:4;stroke-opacity:1;stroke-dashoffset:0;visibility:visible;display:inline;overflow:visible;enable-background:accumulate;font-family:DejaVu Sans;-inkscape-font-specification:DejaVu Sans"
             id="path3005-7" />
          <path
             inkscape:connector-curvature="0"
             d="m 426.90869,742.82054 61.39797,0 0,11.05684 -48.25985,0 0,28.74778 46.2436,0 0,11.05684 -46.2436,0 0,35.18676 49.43057,0 0,11.05684 -62.56869,0 0,-97.10506"
             style="font-variant:normal;font-stretch:normal;text-indent:0;text-align:start;text-decoration:none;line-height:125%;text-transform:none;direction:ltr;block-progression:tb;writing-mode:lr-tb;text-anchor:start;baseline-shift:baseline;color:#000000;fill:#d40000;fill-opacity:1;fill-rule:nonzero;stroke:#d40000;stroke-width:4.5999999;stroke-miterlimit:4;stroke-opacity:1;stroke-dashoffset:0;visibility:visible;display:inline;overflow:visible;enable-background:accumulate;font-family:DejaVu Sans;-inkscape-font-specification:DejaVu Sans"
             id="path3007-9" />
          <path
             inkscape:connector-curvature="0"
             d="m 569.4118,746.00752 0,12.81292 c -4.98648,-2.38473 -9.69105,-4.16249 -14.11373,-5.3333 -4.42279,-1.17064 -8.69376,-1.756 -12.81292,-1.75608 -7.15446,8e-5 -12.68288,1.38761 -16.58526,4.16257 -3.85908,2.77513 -5.7886,6.7209 -5.78858,11.83732 -2e-5,4.29272 1.2791,7.54473 3.83737,9.75603 2.60159,2.16807 7.50128,3.92416 14.6991,5.26826 l 7.9349,1.62601 c 9.79934,1.86454 17.0188,5.15991 21.6584,9.88611 4.68282,4.68294 7.02426,10.97015 7.02434,18.86167 -8e-5,9.40917 -3.16536,16.5419 -9.49587,21.39823 -6.28728,4.85634 -15.52299,7.2845 -27.70714,7.2845 -4.59621,0 -9.4959,-0.52032 -14.69909,-1.56096 -5.15988,-1.04064 -10.51485,-2.57993 -16.06493,-4.61786 l 0,-13.52836 c 5.33328,2.99186 10.55817,5.24659 15.67469,6.76418 5.11647,1.51761 10.14624,2.27642 15.08933,2.27641 7.50126,10e-6 13.28984,-1.47424 17.36574,-4.42274 4.0758,-2.94847 6.11372,-7.1544 6.11378,-12.6178 -6e-5,-4.76959 -1.4743,-8.49856 -4.42273,-11.18692 -2.90519,-2.68829 -7.69648,-4.70453 -14.37389,-6.04874 l -7.99995,-1.56097 c -9.79942,-1.95116 -16.8888,-5.00804 -21.26815,-9.17067 -4.37939,-4.16251 -6.56907,-9.95109 -6.56906,-17.36574 -10e-6,-8.58523 3.01351,-15.3494 9.04059,-20.29255 6.07039,-4.94296 14.41721,-7.41448 25.04048,-7.41458 4.55277,10e-5 9.1923,0.41202 13.91861,1.23576 4.7262,0.82394 9.56085,2.05971 14.50397,3.7073"
             style="font-variant:normal;font-stretch:normal;text-indent:0;text-align:start;text-decoration:none;line-height:125%;text-transform:none;direction:ltr;block-progression:tb;writing-mode:lr-tb;text-anchor:start;baseline-shift:baseline;color:#000000;fill:#d40000;fill-opacity:1;fill-rule:nonzero;stroke:#d40000;stroke-width:4.5999999;stroke-miterlimit:4;stroke-opacity:1;stroke-dashoffset:0;visibility:visible;display:inline;overflow:visible;enable-background:accumulate;font-family:DejaVu Sans;-inkscape-font-specification:DejaVu Sans"
             id="path3009-3" />
        </g>
      </g>
      <g
         inkscape:export-ydpi="180"
         inkscape:export-xdpi="180"
         inkscape:export-filename="/home/facundo/devel/reps/fades/resources/remera-atras.png"
         transform="translate(1275.2045,288.37657)"
         id="g3987">
        <path
           style="fill:#000000"
           d="m -960.76174,-12.895567 c 43.98234,-12.856793 63.38548,-18.948615 83.54866,-26.23099 11.97531,-4.325147 25.78191,-9.079755 30.6814,-10.565807 13.26064,-4.022124 13.30227,-4.090239 12.48076,-20.459154 -0.37288,-7.428661 -0.93261,-14.170603 -1.24402,-14.982079 -0.31141,-0.811475 -1.87392,-1.762633 -3.47218,-2.113669 -4.14857,-0.911187 -8.06462,-4.308995 -8.06462,-6.997389 0,-2.747384 2.52813,-5.241954 6.2549,-6.171905 5.00148,-1.24803 6.26474,-3.74246 5.49892,-10.85809 -0.37571,-3.49019 -0.95842,-10.32986 -1.29495,-15.19925 -0.34918,-5.05322 -1.14669,-9.29731 -1.85782,-9.88754 -2.39587,-1.98837 -31.45551,-9.97079 -58.73025,-16.13267 -24.44108,-5.52169 -26.92374,-6.06325 -44.55929,-9.71993 -40.17212,-8.32955 -38.64566,-8.09223 -42.67524,-6.6351 -11.5599,4.1801 -24.96913,15.73143 -30.66323,26.41469 -5.5373,10.38913 -6.2349,16.00454 -6.8567,55.195316 l -0.5624,35.444888 2.6746,7.92733 c 3.6848,10.92133 8.4629,17.984666 15.8401,23.415441 8.44755,6.218694 20.46843,12.7228715 23.37816,12.6493183 1.32391,-0.033521 10.15435,-2.3255083 19.6232,-5.0934103 z m -21.14916,-2.694257 c -0.87073,-7.238272 -2.54919,-36.253862 -3.09211,-53.455095 l -0.48053,-15.22524 13.37356,-3.408603 c 13.79231,-3.515293 34.83291,-10.567347 84.76979,-28.411688 37.91196,-13.54739 46.62117,-16.52682 47.00175,-16.07939 0.17388,0.20428 0.61492,5.49827 0.9802,11.76442 0.64449,11.05585 0.60216,11.393 -1.42954,11.393 -3.37446,0 -8.0784,2.93009 -9.12564,5.68434 -2.65057,6.971599 0.16325,13.820959 7.29385,17.75441 l 4.39587,2.424896 0,13.651842 0,13.651842 -15.19067,5.282898 c -41.57452,14.458467 -68.37754,23.187408 -94.18213,30.672326 -15.59575,4.523719 -28.81163,8.388195 -29.36862,8.587729 -3.44494,1.23409 -4.37896,0.424326 -4.94578,-4.287687 z m 23.01761,-11.219563 c 3.52444,-3.894441 0.86708,-10.300548 -4.27283,-10.300548 -3.22083,0 -7.22509,4.305298 -6.51822,7.008315 1.22903,4.69978 7.72395,6.681321 10.79105,3.292233 z m -7.81216,-2.052401 c -1.85164,-2.04598 -0.0836,-3.24024 0.95286,-5.210014 2.05338,-3.902239 5.50108,3.960126 4.77618,5.849156 -0.74697,1.946512 -3.69298,1.610697 -5.72904,-0.639142 z m 4.95723,-6.07096 c 0.97645,-1.002472 2.49532,1.32017 2.42331,3.705672 l -0.082,2.725185 -0.5428,-0.386612 c -1.48812,-1.059914 -1.98827,-5.849217 -1.79828,-6.044245 z m 41.04791,-5.895811 c 3.46752,-3.13263 3.9915,-4.177019 3.9915,-7.955373 0,-3.613464 -0.52722,-4.792918 -3.11581,-6.971138 -8.83671,-7.435558 -22.31661,2.67302 -16.55995,12.418268 1.95808,3.314806 4.47476,4.919923 8.84846,5.643637 2.2146,0.366439 3.72809,-0.327754 6.8358,-3.135394 z m -11.61316,-0.585398 c -2.44965,-2.186929 -3.12189,-4.544065 -2.78162,-9.753259 0.143,-2.190089 0.49573,-2.356224 3.84719,-1.812347 7.10974,1.153761 11.66947,9.154493 7.05809,12.384464 -2.9238,2.047935 -5.16553,1.821968 -8.12366,-0.818858 z m 10.5244,-6.876136 c -1.50945,-3.644069 -4.60187,-4.635128 -7.80396,-4.635128 -3.10669,0 -2.93615,-3.229607 0.24498,-4.028008 3.10274,-0.778734 8.30939,1.226312 9.63979,3.712234 1.21921,2.278094 1.27946,8.029371 0.0841,8.029371 -0.48945,0 -1.46367,-1.385308 -2.16498,-3.078469 z m -25.34239,-8.688343 c 11.17618,-9.404116 6.55852,-22.665365 -7.89226,-22.665365 -4.54414,0 -5.32717,0.366611 -8.65828,4.053761 -4.18442,4.631614 -4.77473,8.993026 -2.00678,14.826131 3.19581,6.734508 12.73909,8.681223 18.55732,3.785473 z m -15.40253,-2.500039 c -2.1592,-2.31131 -2.78495,-3.97641 -2.78495,-7.41022 0,-6.280135 2.54808,-9.2116 7.24149,-8.331098 3.82896,0.718306 8.30048,4.776087 9.45062,8.576103 1.16624,3.853103 -0.32012,9.271766 -2.82324,10.29268 -3.47765,1.418352 -8.03991,0.131044 -11.08392,-3.127465 z m 13.56132,-11.807148 c -0.67285,-1.251417 -3.14487,-3.26016 -5.49345,-4.463889 -4.59913,-2.357186 -3.7523,-3.484789 1.83057,-2.437433 5.38682,1.010554 9.59625,5.104661 9.59625,9.333216 0,1.936567 -0.52408,4.500336 -1.16472,5.69726 -1.09909,2.053676 -1.23166,1.950127 -2.35496,-1.838821 -0.65461,-2.208277 -1.74074,-5.038926 -2.41369,-6.290333 z m 91.07898,5.897675 c 6.17734,-6.177264 2.02765,-15.268564 -6.96907,-15.268564 -7.27562,0 -11.09688,6.158529 -7.9351,12.788759 2.87418,6.027322 10.14666,7.237339 14.90417,2.479805 z m -10.66597,0.305737 c -0.90162,-0.345992 -2.30635,-1.918935 -3.12158,-3.495433 -3.42874,-6.630402 3.94613,-11.241235 8.5726,-5.359672 2.02785,2.577978 2.81078,7.422048 1.42377,8.809037 -0.84936,0.849361 -4.71397,0.875256 -6.87479,0.04608 z m 4.77493,-11.460051 c -3.41547,-2.815327 -3.54834,-3.101539 -1.43997,-3.101539 5.46023,0 8.8594,4.180694 7.6647,9.426973 l -1.33628,2.831682 -0.26269,-2.827672 c -0.17067,-1.83722 -2.54788,-4.616706 -4.62576,-6.329444 z m -35.01307,-3.051137 c 6.56976,-4.005869 7.31805,-10.292658 1.80161,-15.136162 -2.88025,-2.528851 -4.47861,-3.14304 -8.17956,-3.14304 -12.58618,0 -14.57828,17.164035 -2.27769,19.624154 4.55659,0.911318 5.09161,0.828185 8.65564,-1.344952 z m -12.6442,-2.103856 c -3.11146,-2.898714 -3.80213,-6.560717 -1.81063,-9.600106 1.90623,-2.909266 4.37818,-3.530352 8.4745,-1.412115 3.72394,1.925751 6.35474,5.425691 6.35474,8.804045 0,3.540336 -1.69984,4.26163 -6.61706,4.26163 -2.81676,0 -4.92249,-0.675468 -6.40155,-2.053454 z m 10.93657,-8.593067 c -0.83549,-1.004852 -3.34195,-2.656209 -5.56991,-3.66969 -2.22797,-1.01347 -3.59513,-1.886559 -3.03814,-1.940182 0.55699,-0.05367 2.05986,-0.291945 3.33962,-0.529618 3.10791,-0.577154 8.13207,2.129711 9.49174,5.113867 0.62899,1.380589 0.77158,3.628747 0.33409,5.268022 l -0.76318,2.859633 -1.13758,-2.637515 c -0.62565,-1.450638 -1.82116,-3.459664 -2.65664,-4.464517 z m 33.22847,-6.609023 c 4.26817,-3.976405 1.55694,-10.087655 -4.47527,-10.087655 -3.07611,0 -3.72931,0.45599 -4.99611,3.48788 -1.73873,4.161278 -1.06264,6.462026 2.2711,7.729515 3.57113,1.357762 4.7245,1.17679 7.20028,-1.12974 z m -7.3215,-0.57525 c -0.88106,-0.338084 -1.60191,-1.705244 -1.60191,-3.038135 0,-3.14009 3.33456,-3.2821 5.47026,-0.23296 2.3104,3.29861 0.40408,4.910603 -3.86835,3.271095 z m 2.8125,-8.188085 c 1.07884,-1.07887 4.69999,1.94342 4.69999,3.92275 0,2.004285 -0.16142,1.963432 -2.58788,-0.65469 -1.42326,-1.5358 -2.37379,-3.00642 -2.11211,-3.26806 z m -120.87618,88.98011 c -5.28899,-2.954746 -12.87386,-8.706571 -15.48106,-11.739701 -3.0932,-3.598446 -7.5932,-13.123339 -9.2854,-19.653755 -1.2941,-4.994611 -1.601,-11.505756 -1.5305,-32.479205 0.049,-14.427741 0.4185,-27.467009 0.8221,-28.976149 0.7248,-2.71025 0.7798,-2.67463 4.4852,2.90603 3.9606,5.96513 10.1636,11.385524 19.92267,17.409191 l 5.90856,3.646935 0.67598,15.368427 c 0.37187,8.452624 1.10102,22.887798 1.62034,32.078151 0.51932,9.190353 0.94861,18.632244 0.95397,20.981976 0.0111,4.848922 -0.20993,4.861439 -8.09186,0.4581 z m -1.18153,-74.570394 c -9.16583,-5.365475 -16.96923,-12.671576 -20.13793,-18.854806 -3.379,-6.59367 -3.8328,-17.03402 -1.0453,-24.04982 2.9633,-7.45822 9.2129,-16.36716 14.985,-21.36176 6.65749,-5.76068 18.39299,-11.52684 22.17425,-10.89514 3.00087,0.50132 15.04433,2.9529 57.61435,11.728 13.36779,2.75553 30.68515,6.69314 38.48302,8.75022 7.79788,2.05707 15.77298,4.06081 17.72245,4.45275 6.7009,1.34721 22.27964,6.46069 22.27964,7.31294 0,0.4692 -0.56965,0.85447 -1.26589,0.85615 -0.69624,0.002 -9.92457,3.23914 -20.5074,7.19434 -10.58283,3.95521 -27.44447,10.06284 -37.47031,13.57252 -10.02584,3.50967 -25.46573,8.92131 -34.31075,12.02587 -8.84512,3.104556 -22.28886,7.290678 -29.87498,9.3025 -7.58622,2.011831 -14.24874,3.80831 -14.80573,3.992188 -3.25698,1.075246 -6.97222,-0.0051 -13.84042,-4.025952 z m 30.04379,-15.633816 c 3.49588,-1.53864 6.77342,-5.80919 6.4129,-8.35598 -0.72328,-5.10882 -12.50537,-7.69151 -19.64103,-4.3054 -5.65619,2.68402 -5.85165,8.2454 -0.38918,11.07019 3.70692,1.91692 10.95328,2.76366 13.61731,1.59119 z m -12.10483,-2.2882 c -5.01606,-2.28543 -4.65081,-4.901 2.43625,-4.901 3.81346,0 12.86869,1.20073 12.86869,2.23772 0,2.91343 -10.4579,4.87179 -15.30494,2.66328 z m 3.74997,-5.40735 c -4.03819,0 -7.34216,-0.33129 -7.34216,-0.73619 0,-0.40491 1.20837,-1.52793 2.68521,-2.49561 3.75523,-2.46052 12.69605,-2.38334 15.47726,0.13361 3.11064,2.81516 2.7488,4.83957 -0.6932,3.87701 -1.53173,-0.42836 -6.08893,-0.77882 -10.12711,-0.77882 z m 41.72937,-14.21062 c 10.66688,-4.05957 11.70106,-11.91263 2.06856,-15.70655 -5.13627,-2.02299 -15.61965,-1.5669 -20.43357,0.88899 -4.83286,2.46555 -6.09217,5.13715 -4.37532,9.28208 2.21277,5.34198 15.04261,8.46505 22.74033,5.53548 z m -14.8584,-1.53023 c -3.82217,-1.06154 -6.86993,-3.34345 -6.86993,-5.14374 0,-1.81925 6.95287,-3.92711 12.87956,-3.9046 3.71219,0.0141 7.52373,0.78384 10.4128,2.10288 l 4.5572,2.08062 -3.00208,2.41236 c -4.33876,3.4864 -10.98843,4.39355 -17.97755,2.45248 z m 10.81745,-9.75698 c -5.75868,-1.52307 -4.18152,-1.13231 -9.62575,0.28607 -6.70557,1.74703 -9.42312,-0.11779 -3.42554,-2.97782 4.90709,-2.34002 15.13284,-2.23356 19.68478,0.20494 3.79159,2.03119 5.82025,6.11299 2.36549,4.75971 -1.03125,-0.40395 -5.52184,-1.35324 -8.99898,-2.2729 z m 51.15399,5.77293 c 2.44539,-2.44538 1.75249,-4.66385 -2.07484,-6.64305 -5.41345,-2.79938 -11.06742,-1.0127 -11.06742,3.49732 0,4.84658 9.23178,7.05627 13.14226,3.14573 z m -9.65742,-0.49712 c -1.81842,-1.37541 -1.60525,-2.82594 2.84461,-2.85574 4.51851,-0.0303 6.37522,2.52969 3.54449,3.6719 -2.34089,0.94456 -4.41077,0.68014 -6.3891,-0.81616 z m 0.82182,-3.57669 c -2.13338,0 -2.33197,-0.23776 -1.26852,-1.51907 1.77852,-2.14301 5.43471,-1.88544 8.24265,0.58069 l 2.39081,2.09975 -3.4179,-0.58069 c -1.87989,-0.31938 -4.55608,-0.58068 -5.94704,-0.58068 z m -78.06636,-2.05081 c 4.87499,-2.57524 7.04219,-8.18265 4.32357,-11.18669 -4.38038,-4.84025 -16.10525,-4.99301 -21.70311,-0.28276 -5.0038,4.21047 -3.74055,9.17266 3.02436,11.87941 5.34631,2.13919 9.76872,2.01289 14.35518,-0.40996 z m -14.85252,-1.28158 c -4.8836,-2.46339 -2.31522,-5.86835 5.10208,-7.05443 4.75002,-0.75956 12.88144,1.95272 12.35362,3.69301 -0.18746,0.61814 -2.30706,2.12742 -4.71032,3.35395 -4.43933,2.26566 -8.26413,2.26791 -12.74538,0.007 z m -3.54449,-6.20577 c 0,-4.97205 16.06656,-7.81473 20.29119,-3.59016 2.64338,2.64336 -0.12987,4.3886 -3.52914,3.09618 -3.65214,-1.38854 -9.65403,-1.25689 -13.21756,0.3748 -1.67097,0.76513 -3.15206,1.42816 -3.29131,1.47339 -0.13925,0.0453 -0.25318,-0.56416 -0.25318,-1.35421 z m 141.19502,44.45382 c 0.94344,-1.43982 2.71417,-2.98918 3.93489,-3.44302 2.4458,-0.90929 5.00451,-0.32218 4.54099,1.04196 -0.3193,0.93962 -9.15531,5.6938 -9.80081,5.27325 -0.2147,-0.13988 0.38159,-1.43237 1.32493,-2.87219 z"
           id="path4484-4"
           inkscape:connector-curvature="0"
           sodipodi:nodetypes="sssssssscscssssscsscssscsscsscscccsssssssscssccccscccscsscscssscssssccssscssssssscssscccsscscsssccssccssssssscscsscsscccscssssssscssccsccsccscsscsscsccssssssscssssscccssccsscssscssssscssssscsssssssssssscsscscscssssssscscsccsssscscsccc" />
        <path
           style="color:#000000;fill:#d40000;fill-opacity:1;stroke:none;stroke-width:2;marker:none;visibility:visible;display:inline;overflow:visible;enable-background:accumulate"
           d="m -995.52552,-19.58104 c -10.85728,-7.348769 -15.89588,-13.513293 -19.55538,-23.9253 -2.4735,-7.037349 -2.814,-11.610003 -2.814,-37.783896 l 0,-29.777614 4.8192,6.31152 c 2.6505,3.47133 9.2071,9.309638 14.57011,12.974022 l 9.75094,6.662525 0.87059,14.306752 c 1.76305,28.973117 2.73812,57.210369 1.97554,57.210369 -0.43141,0 -4.75906,-2.690267 -9.617,-5.978378 z"
           id="path4488-3"
           inkscape:connector-curvature="0" />
        <path
           style="color:#000000;fill:#d40000;fill-opacity:1;stroke:none;stroke-width:2;marker:none;visibility:visible;display:inline;overflow:visible;enable-background:accumulate"
           d="m -981.81547,-21.691054 c -0.49551,-5.222278 -1.31828,-21.313032 -1.82837,-35.757229 l -0.92742,-26.262171 6.19665,-1.56952 c 12.82487,-3.248331 47.07555,-14.554623 91.30052,-30.138676 25.14433,-8.86039 45.79279,-16.00442 45.8855,-15.87561 0.0927,0.12879 0.59914,4.75618 1.12545,10.28307 l 0.95691,10.04889 -5.32175,2.61119 c -9.69767,4.75829 -9.41387,16.00377 0.56229,22.280371 l 4.5102,2.837626 0.0542,13.540748 0.0542,13.540737 -33.40854,11.400302 c -18.37465,6.27017 -39.42203,13.276298 -46.77191,15.569167 -28.28187,8.82284 -56.64236,16.986173 -59.01224,16.986173 -2.02838,0 -2.63714,-1.712363 -3.37561,-9.495068 z m 24.12777,-8.208196 c 0.52184,-5.347651 -2.55308,-8.270031 -7.4172,-7.049218 -2.18066,0.547309 -3.84806,2.214698 -4.39536,4.395368 -1.22082,4.864102 1.70156,7.939038 7.04921,7.417188 3.70808,-0.361842 4.4015,-1.055266 4.76335,-4.763338 z m 37.81774,-10.675453 c 4.45236,-4.18277 4.52246,-12.774743 0.12934,-15.851805 -7.48269,-5.241084 -17.97378,-0.587484 -17.97378,7.97275 0,9.513986 10.9552,14.35115 17.84444,7.879055 z m -26.62478,-15.228228 c 0.20989,0 1.63596,-2.057272 3.16905,-4.571702 3.80303,-6.237419 3.55483,-11.679395 -0.72801,-15.962231 -3.00399,-3.003985 -4.59671,-3.463047 -10.75932,-3.101083 -5.96529,0.350377 -7.73099,1.093576 -10.07192,4.23937 -3.61764,4.861459 -3.62394,11.418024 -0.0156,16.250996 3.33096,4.461458 7.99108,5.914516 13.81344,4.307121 2.31591,-0.639365 4.38248,-1.162471 4.59237,-1.162471 z m 88.0678,-8.542157 c 7.44498,-5.856225 3.44787,-16.778011 -6.14033,-16.778011 -9.34597,0 -13.09985,9.534858 -6.39399,16.240717 4.21811,4.218093 7.667,4.365939 12.53432,0.537294 z m -38.6018,-16.199712 c 5.32717,-4.482523 5.59813,-9.282733 0.79512,-14.085748 -2.84257,-2.842559 -4.67032,-3.448474 -9.35445,-3.101084 -14.79938,1.097607 -13.70265,20.498174 1.17428,20.772244 1.68141,0.03099 5.00467,-1.582462 7.38505,-3.585412 z m 29.70434,-15.814395 c 2.45574,-1.98854 2.9676,-3.427258 2.24442,-6.308625 -1.34287,-5.35043 -7.50664,-6.71197 -10.97803,-2.42499 -3.38749,4.18336 -3.25023,6.45784 0.55032,9.119853 3.94076,2.760215 4.31967,2.74233 8.18329,-0.386238 z"
           id="path4490-3"
           inkscape:connector-curvature="0" />
        <path
           style="color:#000000;fill:#d40000;fill-opacity:1;stroke:none;stroke-width:2;marker:none;visibility:visible;display:inline;overflow:visible;enable-background:accumulate"
           d="m -992.48186,-91.341009 c -3.43043,-1.730025 -9.48274,-6.310527 -13.44964,-10.178881 -8.3736,-8.16563 -11.4707,-16.43246 -9.9515,-26.56279 1.0903,-7.27088 9.377,-20.87083 16.23096,-26.63808 5.62908,-4.73655 17.28011,-10.80317 20.7456,-10.8021 9.06597,0.003 123.29338,25.86362 132.23502,29.93771 2.81405,1.28217 -0.73061,2.90827 -27.37675,12.55895 -64.19897,23.251545 -100.4693,34.893834 -108.57215,34.850217 -1.99341,-0.01073 -6.43111,-1.435002 -9.86154,-3.165026 z m 32.859,-17.799601 c 3.26137,-3.60376 2.32484,-8.76076 -2.00503,-11.04077 -4.07229,-2.14436 -14.46826,-1.50733 -17.58267,1.0774 -3.09578,2.56927 -2.5732,7.95728 1.01555,10.47095 4.53458,3.17613 15.50989,2.87618 18.57215,-0.50758 z m 34.46061,-22.04451 c 5.35054,-4.50219 5.48236,-7.90452 0.4596,-11.86232 -3.33534,-2.62814 -5.27192,-2.97772 -14.0544,-2.53706 -12.09104,0.60668 -16.88496,3.82933 -15.26973,10.26493 1.19615,4.76582 7.6396,7.64833 17.25945,7.72111 5.82566,0.0441 8.14036,-0.67129 11.60508,-3.58666 z m 42.86967,-3.83145 c 1.2581,-2.07157 0.92569,-3.06095 -1.77232,-5.27504 -5.61414,-4.60717 -12.85592,-2.85365 -12.85592,3.11293 0,5.43098 11.6016,7.14575 14.62824,2.16211 z m -85.31368,-6.99065 c 7.51631,-6.90282 1.27271,-14.52162 -10.93887,-13.34824 -7.84418,0.75373 -12.62295,4.11086 -12.62295,8.86772 0,8.3623 16.01827,11.40835 23.56182,4.48052 z"
           id="path4492-6"
           inkscape:connector-curvature="0" />
      </g>
      <g
         inkscape:export-ydpi="180"
         inkscape:export-xdpi="180"
         inkscape:export-filename="/home/facundo/devel/reps/fades/resources/remera-atras.png"
         id="text3336-5-0"
         style="font-size:133.20237732px;font-style:normal;font-weight:normal;line-height:125%;letter-spacing:0px;word-spacing:0px;opacity:0.97000002;fill:#d40000;fill-opacity:1;stroke:#d40000;stroke-opacity:1;font-family:Sans"
         transform="translate(-157.46046,-640.15308)">
        <text
           sodipodi:linespacing="125%"
           id="text3983"
           y="978.51337"
           x="375.09113"
           style="font-size:37.0580101px;font-style:normal;font-weight:normal;line-height:125%;letter-spacing:0px;word-spacing:0px;fill:#d40000;fill-opacity:1;stroke:none;font-family:Sans"
           xml:space="preserve"><tspan
             style="font-style:normal;font-variant:normal;font-weight:normal;font-stretch:normal;fill:#d40000;fill-opacity:1;font-family:Ubuntu Mono;-inkscape-font-specification:Ubuntu Mono"
             y="978.51337"
             x="375.09113"
             id="tspan3985"
             sodipodi:role="line">fades.rtfd.org</tspan></text>
      </g>
    </g>
  </g>
</svg>
